<?xml version="1.0" standalone="no"?>
<!DOCTYPE svg PUBLIC "-//W3C//DTD SVG 20010904//EN"
 "http://www.w3.org/TR/2001/REC-SVG-20010904/DTD/svg10.dtd">
<svg version="1.0" xmlns="http://www.w3.org/2000/svg"
 width="1098.000000pt" height="981.000000pt" viewBox="0 0 1098.000000 981.000000"
 preserveAspectRatio="xMidYMid meet">

<g transform="translate(0.000000,981.000000) scale(0.100000,-0.100000)"
fill="#000000" stroke="none">
<path d="M0 9585 l0 -225 5490 0 5490 0 0 225 0 225 -5490 0 -5490 0 0 -225z
m332 136 c39 -15 76 -60 83 -101 11 -66 -39 -132 -110 -146 -46 -8 -109 27
-131 74 -48 101 54 213 158 173z m10466 -3 c8 -8 12 -52 12 -129 0 -93 -3
-121 -16 -133 -14 -14 -413 -16 -4188 -16 -3235 0 -4175 3 -4184 12 -8 8 -12
51 -12 129 0 94 3 121 16 133 14 15 406 16 4188 16 3224 0 4175 -3 4184 -12z
m-10258 -58 c12 -8 9 -10 -12 -10 -39 0 -43 -17 -8 -35 23 -12 30 -22 28 -38
-2 -17 -10 -22 -38 -24 -34 -1 -34 -1 -5 5 36 9 39 28 5 45 -28 14 -38 46 -18
58 17 11 30 11 48 -1z m54 -63 c6 18 16 33 21 33 6 0 15 -15 21 -33 l11 -32 7
38 c4 20 12 37 17 37 6 0 8 -8 5 -17 -3 -10 -8 -30 -12 -45 -9 -38 -30 -35
-39 5 l-7 32 -11 -32 c-13 -42 -33 -42 -41 -2 -10 50 -5 68 7 24 l10 -40 11
32z m140 37 c11 -4 16 -19 16 -45 0 -38 -1 -39 -36 -39 -31 0 -35 3 -32 23 2
14 11 23 26 25 13 2 21 9 19 15 -2 7 -12 11 -22 9 -10 -2 -14 1 -10 7 7 12 17
14 39 5z m98 -20 c-3 -15 -13 -29 -23 -31 -28 -8 -23 -23 7 -23 21 0 25 -4 22
-22 -2 -19 -9 -23 -38 -23 -31 0 -35 3 -32 25 1 14 2 38 3 54 0 40 5 46 38 46
25 0 28 -3 23 -26z m90 0 c-3 -15 -13 -29 -23 -31 -26 -7 -24 -21 4 -25 14 -2
22 -10 22 -23 0 -15 -8 -21 -33 -23 -38 -4 -48 12 -33 51 7 17 7 28 1 32 -19
12 10 45 39 45 25 0 28 -3 23 -26z m76 14 c22 -22 13 -38 -19 -38 -36 0 -35
-21 2 -31 24 -7 23 -7 -4 -8 -21 -1 -30 5 -37 25 -13 32 -13 30 6 48 19 19 36
20 52 4z m58 -7 c-9 -10 -16 -30 -16 -44 0 -15 -4 -27 -10 -27 -10 0 -15 72
-5 81 2 3 14 5 26 6 20 2 20 1 5 -16z m-245 -140 c-9 -6 -10 -11 -2 -15 13 -9
5 -26 -12 -26 -8 0 -8 3 2 9 9 6 10 11 2 15 -13 9 -5 26 12 26 8 0 8 -3 -2 -9z
m55 0 c11 9 14 7 14 -10 0 -14 -6 -21 -20 -21 -14 0 -20 6 -19 23 0 12 3 16 6
9 4 -10 8 -10 19 -1z m63 -19 c0 -14 -2 -13 -9 3 -8 19 -9 19 -9 1 -1 -11 -4
-17 -7 -13 -4 3 -4 13 0 22 7 20 26 10 25 -13z m47 1 c1 -14 -3 -20 -12 -16
-18 7 -19 46 -1 41 6 -3 12 -14 13 -25z m36 2 c-2 -14 -6 -25 -7 -25 -1 0 -5
11 -7 25 -3 16 -1 25 7 25 8 0 10 -9 7 -25z m90 16 c-8 -4 -14 -12 -14 -16 0
-4 6 -12 14 -16 9 -6 9 -9 1 -9 -6 0 -15 5 -18 10 -9 15 2 40 17 40 10 0 10
-2 0 -9z m41 -11 c-3 -12 -8 -19 -11 -16 -5 6 5 36 12 36 2 0 2 -9 -1 -20z
m62 0 c0 -7 -6 -15 -12 -17 -7 -3 -13 0 -13 7 0 6 5 8 10 5 6 -3 10 -2 10 4 0
5 -5 12 -10 14 -6 3 -5 4 2 3 7 -2 13 -9 13 -16z m-661 -15 c-4 -8 -8 -15 -10
-15 -2 0 -4 7 -4 15 0 8 4 15 10 15 5 0 7 -7 4 -15z m518 0 c0 -5 -5 -10 -11
-11 -8 -2 -7 -1 0 3 8 4 7 8 -2 15 -11 8 -11 9 -1 6 8 -2 14 -8 14 -13z m95
-7 c-3 -8 -6 -5 -6 6 -1 11 2 17 5 13 3 -3 4 -12 1 -19z"/>
<path d="M225 9637 c-11 -27 -12 -42 -4 -66 14 -40 30 -41 19 -1 -5 17 -5 44
1 62 12 45 2 48 -16 5z"/>
<path d="M320 9660 c0 -5 5 -10 10 -10 14 0 12 -84 -2 -98 -9 -9 -8 -12 5 -12
10 0 17 8 17 18 0 10 5 23 11 29 7 7 7 17 1 29 -6 11 -13 27 -16 37 -6 18 -26
24 -26 7z"/>
<path d="M250 9599 c0 -5 5 -7 10 -4 6 3 10 8 10 11 0 2 -4 4 -10 4 -5 0 -10
-5 -10 -11z"/>
<path d="M280 9599 c0 -5 5 -7 10 -4 6 3 10 8 10 11 0 2 -4 4 -10 4 -5 0 -10
-5 -10 -11z"/>
<path d="M310 9600 c0 -5 5 -10 10 -10 6 0 10 5 10 10 0 6 -4 10 -10 10 -5 0
-10 -4 -10 -10z"/>
<path d="M2513 9595 c0 -27 2 -38 4 -22 2 15 2 37 0 50 -2 12 -4 0 -4 -28z"/>
<path d="M2578 9630 c-6 -18 3 -80 11 -80 4 0 6 14 3 30 -3 18 0 30 7 30 6 0
11 -13 11 -30 0 -16 3 -30 8 -30 6 0 7 35 3 85 -1 6 -6 3 -11 -5 -8 -12 -11
-13 -19 -1 -6 10 -10 10 -13 1z"/>
<path d="M2851 9624 c0 -11 3 -14 6 -6 3 7 2 16 -1 19 -3 4 -6 -2 -5 -13z"/>
<path d="M3098 9630 c-5 -17 3 -80 11 -80 7 0 6 79 -2 86 -3 3 -7 0 -9 -6z"/>
<path d="M4006 9631 c-3 -5 3 -7 14 -4 15 4 20 0 20 -16 0 -12 -6 -24 -14 -27
-8 -3 -17 -12 -20 -20 -4 -10 2 -14 22 -13 18 1 21 3 9 6 -17 4 -17 6 -2 23 9
10 15 27 13 37 -4 20 -33 30 -42 14z"/>
<path d="M2537 9613 c6 -4 13 -22 16 -38 4 -27 5 -27 3 4 0 21 -7 36 -16 38
-10 3 -11 2 -3 -4z"/>
<path d="M2641 9570 c0 -25 3 -38 7 -30 4 8 13 15 21 15 8 0 16 7 18 15 4 13
3 13 -6 0 -8 -11 -13 -12 -22 -3 -16 16 -3 47 17 39 8 -3 12 -2 9 3 -3 6 -14
9 -25 8 -17 -1 -20 -8 -19 -47z"/>
<path d="M2714 9608 c-4 -6 0 -16 9 -23 21 -15 22 -29 2 -21 -8 3 -15 1 -15
-4 0 -14 27 -12 36 2 4 6 0 16 -9 23 -21 15 -22 29 -2 21 8 -3 15 -1 15 4 0
14 -27 12 -36 -2z"/>
<path d="M2870 9571 c0 -25 4 -41 8 -35 4 6 15 13 25 17 28 10 19 62 -10 63
-21 1 -23 -3 -23 -45z m40 14 c0 -16 -6 -25 -15 -25 -15 0 -21 31 -8 43 13 14
23 6 23 -18z"/>
<path d="M2947 9614 c-4 -4 -7 -18 -7 -31 0 -26 26 -41 42 -25 8 8 5 9 -11 5
-12 -3 -21 -1 -21 6 0 6 9 11 21 11 14 0 19 5 17 17 -3 19 -29 29 -41 17z m28
-14 c3 -5 -1 -10 -9 -10 -9 0 -16 5 -16 10 0 6 4 10 9 10 6 0 13 -4 16 -10z"/>
<path d="M3040 9605 c0 -9 7 -18 15 -21 20 -8 19 -21 -2 -27 -16 -4 -16 -5 -1
-6 24 -2 34 20 15 34 -21 15 -22 29 -1 21 8 -3 12 -2 9 4 -10 16 -35 12 -35
-5z"/>
<path d="M3134 9606 c-10 -26 0 -51 21 -51 16 0 20 7 20 30 0 33 -30 49 -41
21z m36 -21 c0 -16 -6 -25 -15 -25 -9 0 -15 9 -15 25 0 16 6 25 15 25 9 0 15
-9 15 -25z"/>
<path d="M3201 9583 c2 -35 2 -35 6 -8 3 16 10 33 16 37 8 5 6 8 -5 8 -14 0
-18 -8 -17 -37z"/>
<path d="M3247 9614 c-4 -4 -7 -18 -7 -31 0 -26 26 -41 42 -25 8 8 5 9 -11 5
-12 -3 -21 -1 -21 6 0 6 9 11 21 11 14 0 19 5 17 17 -3 19 -29 29 -41 17z m28
-14 c3 -5 -1 -10 -9 -10 -9 0 -16 5 -16 10 0 6 4 10 9 10 6 0 13 -4 16 -10z"/>
<path d="M3340 9605 c0 -9 7 -18 15 -21 20 -8 19 -21 -2 -27 -16 -4 -16 -5 -1
-6 24 -2 34 20 15 34 -21 15 -22 29 -1 21 8 -3 12 -2 9 4 -10 16 -35 12 -35
-5z"/>
<path d="M3461 9604 c0 -11 3 -14 6 -6 3 7 2 16 -1 19 -3 4 -6 -2 -5 -13z"/>
<path d="M3490 9610 c0 -5 7 -7 15 -4 8 4 15 2 15 -4 0 -5 -9 -12 -21 -15 -26
-7 -20 -32 7 -32 14 0 20 8 22 33 3 27 0 32 -17 32 -12 0 -21 -4 -21 -10z m30
-40 c0 -5 -7 -10 -15 -10 -8 0 -15 5 -15 10 0 6 7 10 15 10 8 0 15 -4 15 -10z"/>
<path d="M3554 9605 c-9 -24 1 -50 19 -49 25 2 21 -14 -5 -19 -20 -5 -20 -5 2
-4 22 2 25 7 28 42 3 35 0 41 -18 42 -12 1 -23 -4 -26 -12z m31 -20 c0 -10 -6
-20 -12 -22 -8 -3 -13 5 -13 22 0 17 5 25 13 23 6 -3 12 -13 12 -23z"/>
<path d="M3624 9606 c-9 -25 1 -51 19 -50 24 2 21 -5 -5 -16 -23 -9 -23 -9 -2
-9 24 -1 34 16 34 60 0 22 -5 29 -20 29 -11 0 -23 -6 -26 -14z m31 -21 c0 -10
-6 -20 -12 -22 -8 -3 -13 5 -13 22 0 17 5 25 13 23 6 -3 12 -13 12 -23z"/>
<path d="M3689 9604 c-9 -11 -10 -20 -2 -32 12 -20 43 -28 43 -12 0 6 -4 8
-10 5 -5 -3 -16 -3 -22 2 -9 5 -3 10 17 14 l30 7 -28 1 c-17 1 -26 5 -22 12 4
6 14 8 22 5 8 -3 11 -1 8 4 -9 14 -21 12 -36 -6z"/>
<path d="M3751 9583 c2 -35 2 -35 6 -8 3 16 10 33 16 37 8 5 6 8 -5 8 -14 0
-18 -8 -17 -37z"/>
<path d="M3823 9585 c0 -22 2 -30 4 -17 2 12 2 30 0 40 -3 9 -5 -1 -4 -23z"/>
<path d="M3856 9612 c-3 -6 2 -9 12 -8 11 1 17 -6 17 -19 0 -13 -6 -19 -19
-18 -13 1 -15 -2 -7 -10 18 -18 49 18 35 40 -13 21 -30 27 -38 15z"/>
<path d="M3941 9619 c-1 -3 4 -21 10 -39 10 -28 13 -30 21 -15 6 9 7 19 4 22
-3 4 -6 0 -6 -8 -1 -8 -7 0 -15 16 -7 17 -14 27 -14 24z"/>
<path d="M4105 9610 c-8 -14 3 -30 21 -30 8 0 14 -5 14 -11 0 -7 -9 -9 -21 -6
-16 4 -19 3 -11 -5 12 -12 42 -4 42 13 0 6 -9 13 -20 16 -11 3 -20 10 -20 15
0 6 9 8 20 5 11 -3 18 -1 14 4 -7 12 -31 11 -39 -1z"/>
<path d="M4161 9604 c0 -11 3 -14 6 -6 3 7 2 16 -1 19 -3 4 -6 -2 -5 -13z"/>
<path d="M4190 9611 c0 -5 5 -13 10 -16 6 -3 10 -2 10 4 0 5 -4 13 -10 16 -5
3 -10 2 -10 -4z"/>
<path d="M4256 9611 c-3 -5 3 -7 14 -4 11 3 20 1 20 -5 0 -5 -9 -12 -20 -15
-30 -8 -26 -37 5 -35 22 2 26 7 23 33 -3 30 -30 47 -42 26z m29 -41 c-3 -5
-10 -10 -16 -10 -5 0 -9 5 -9 10 0 6 7 10 16 10 8 0 12 -4 9 -10z"/>
<path d="M4324 9606 c-9 -25 1 -51 19 -50 24 2 21 -5 -5 -16 -23 -9 -23 -9 -2
-9 24 -1 34 16 34 60 0 22 -5 29 -20 29 -11 0 -23 -6 -26 -14z m31 -21 c0 -10
-6 -20 -12 -22 -8 -3 -13 5 -13 22 0 17 5 25 13 23 6 -3 12 -13 12 -23z"/>
<path d="M4385 9601 c-8 -25 4 -51 24 -52 13 0 12 -2 -4 -10 l-20 -9 20 3 c16
2 21 11 23 45 3 36 0 42 -17 42 -11 0 -22 -8 -26 -19z m35 -16 c0 -26 -14 -33
-25 -15 -9 14 1 40 15 40 5 0 10 -11 10 -25z"/>
<path d="M4457 9614 c-4 -4 -7 -18 -7 -31 0 -26 26 -41 42 -25 8 8 5 9 -11 5
-12 -3 -21 -1 -21 6 0 6 9 11 21 11 14 0 19 5 17 17 -3 19 -29 29 -41 17z m33
-14 c0 -5 -7 -10 -15 -10 -8 0 -15 5 -15 10 0 6 7 10 15 10 8 0 15 -4 15 -10z"/>
<path d="M4521 9583 c2 -35 2 -35 6 -8 3 16 10 33 16 37 8 5 6 8 -5 8 -14 0
-18 -8 -17 -37z"/>
<path d="M4614 9608 c-4 -6 0 -16 9 -23 21 -15 22 -29 2 -21 -8 3 -15 1 -15
-4 0 -14 27 -12 36 2 4 6 0 16 -9 23 -21 15 -22 29 -2 21 8 -3 15 -1 15 4 0
14 -27 12 -36 -2z"/>
<path d="M4674 9606 c-10 -26 0 -51 21 -51 16 0 20 7 20 30 0 33 -30 49 -41
21z m36 -21 c0 -16 -6 -25 -15 -25 -9 0 -15 9 -15 25 0 16 6 25 15 25 9 0 15
-9 15 -25z"/>
<path d="M4742 9583 c1 -38 1 -38 5 -5 5 40 25 38 35 -4 6 -27 6 -27 5 6 -2
28 -6 36 -24 38 -21 3 -23 -1 -21 -35z"/>
<path d="M3401 9590 c0 -8 4 -22 9 -30 12 -18 12 -2 0 25 -6 13 -9 15 -9 5z"/>
<path d="M3911 9584 c0 -11 3 -14 6 -6 3 7 2 16 -1 19 -3 4 -6 -2 -5 -13z"/>
<path d="M4071 9584 c0 -11 3 -14 6 -6 3 7 2 16 -1 19 -3 4 -6 -2 -5 -13z"/>
<path d="M4216 9575 c-9 -26 -7 -32 5 -12 6 10 9 21 6 23 -2 3 -7 -2 -11 -11z"/>
<path d="M3445 9570 c3 -5 8 -10 11 -10 2 0 4 5 4 10 0 6 -5 10 -11 10 -5 0
-7 -4 -4 -10z"/>
<path d="M4170 9571 c0 -5 5 -13 10 -16 6 -3 10 -2 10 4 0 5 -4 13 -10 16 -5
3 -10 2 -10 -4z"/>
<path d="M700 9575 c0 -8 6 -15 14 -15 8 0 16 7 20 15 4 10 -1 15 -14 15 -11
0 -20 -7 -20 -15z"/>
<path d="M784 9619 c-10 -17 13 -36 27 -22 12 12 4 33 -11 33 -5 0 -12 -5 -16
-11z"/>
<path d="M775 9540 c-8 -13 20 -24 41 -16 20 8 9 26 -16 26 -10 0 -22 -5 -25
-10z"/>
<path d="M874 9619 c-8 -14 11 -33 25 -25 11 7 4 36 -9 36 -5 0 -12 -5 -16
-11z"/>
<path d="M865 9540 c-8 -13 20 -24 41 -16 20 8 9 26 -16 26 -10 0 -22 -5 -25
-10z"/>
<path d="M960 9615 c-10 -13 -9 -15 9 -15 11 0 21 4 21 9 0 18 -18 21 -30 6z"/>
<path d="M202 8924 c-47 -33 -19 -83 56 -99 23 -5 32 -12 30 -23 -4 -23 -66
-29 -74 -8 -7 18 -44 22 -44 6 0 -6 11 -22 25 -35 44 -45 125 -23 125 34 0 33
-13 46 -63 64 -20 6 -37 17 -39 22 -4 14 42 19 55 6 6 -6 19 -11 28 -11 26 0
12 39 -18 51 -35 13 -55 11 -81 -7z"/>
<path d="M1380 8840 c0 -93 1 -100 20 -100 17 0 20 7 20 40 0 39 1 40 33 40
41 0 64 17 72 52 11 43 -23 68 -90 68 l-55 0 0 -100z m105 40 c0 -10 -12 -16
-32 -18 -28 -3 -33 0 -33 18 0 18 5 21 33 18 20 -2 32 -8 32 -18z"/>
<path d="M1724 8922 c-20 -13 -23 -46 -11 -112 11 -59 14 -65 36 -65 13 0 26
6 29 13 2 6 -3 12 -12 12 -12 0 -16 11 -16 45 0 25 5 45 10 45 6 0 10 7 10 15
0 8 -4 15 -10 15 -5 0 -10 9 -10 20 0 21 -8 25 -26 12z"/>
<path d="M1964 8922 c-20 -13 -23 -46 -11 -112 11 -59 14 -65 36 -65 13 0 26
6 29 13 2 6 -3 12 -12 12 -12 0 -16 11 -16 45 0 25 5 45 10 45 6 0 10 7 10 15
0 8 -4 15 -10 15 -5 0 -10 9 -10 20 0 21 -8 25 -26 12z"/>
<path d="M350 8881 c0 -5 9 -39 21 -76 24 -79 48 -86 63 -17 5 23 12 42 16 42
4 0 11 -19 16 -42 6 -27 15 -44 26 -46 13 -3 21 12 37 66 25 82 25 82 8 82 -8
0 -20 -21 -29 -47 l-15 -48 -13 48 c-17 64 -43 65 -59 2 -6 -25 -13 -45 -16
-45 -3 0 -10 20 -16 45 -7 26 -17 45 -25 45 -8 0 -14 -4 -14 -9z"/>
<path d="M586 8874 c-20 -20 -20 -34 -1 -34 8 0 15 5 15 10 0 6 9 10 21 10 33
0 18 -31 -21 -44 -24 -7 -36 -18 -38 -33 -4 -30 32 -49 64 -34 15 6 24 7 24 1
0 -6 8 -10 18 -10 15 0 17 8 14 62 -4 67 -17 88 -58 88 -13 0 -30 -7 -38 -16z
m54 -84 c0 -13 -7 -20 -18 -20 -26 0 -34 11 -21 27 17 20 39 16 39 -7z"/>
<path d="M736 8874 c-24 -23 -30 -61 -16 -94 14 -34 52 -49 75 -30 13 10 15 9
15 -10 0 -20 -4 -22 -45 -18 -48 3 -57 -5 -26 -22 27 -14 64 -13 85 3 14 10
19 32 23 100 6 84 5 87 -16 87 -11 0 -21 -5 -21 -12 0 -9 -3 -9 -12 0 -17 17
-44 15 -62 -4z m69 -59 c0 -36 -2 -40 -25 -40 -20 0 -26 6 -28 28 -5 42 5 59
30 55 20 -3 23 -9 23 -43z"/>
<path d="M900 8870 c-12 -12 -20 -33 -20 -55 0 -22 8 -43 20 -55 23 -23 33
-24 62 -9 17 9 19 8 16 -8 -3 -14 -13 -18 -51 -18 -50 0 -59 -8 -28 -25 28
-14 63 -12 89 6 20 14 22 24 22 100 0 68 -3 84 -15 84 -8 0 -15 -5 -15 -10 0
-7 -6 -7 -19 0 -28 14 -38 13 -61 -10z m68 -22 c30 -30 -2 -93 -36 -71 -21 13
-27 50 -12 69 15 17 32 18 48 2z"/>
<path d="M1061 8864 c-51 -64 5 -147 76 -115 31 14 24 24 -18 25 -53 2 -48 26
5 26 38 0 46 3 46 19 0 29 -39 71 -65 71 -14 0 -32 -11 -44 -26z m67 -21 c2
-8 -6 -13 -22 -13 -25 0 -33 10 -19 24 10 10 36 3 41 -11z"/>
<path d="M1200 8814 c0 -67 2 -74 20 -74 18 0 20 7 20 56 0 47 3 57 20 61 36
10 23 30 -20 30 l-40 0 0 -73z"/>
<path d="M1571 8864 c-51 -64 5 -147 76 -115 31 14 24 24 -18 25 -53 2 -48 26
5 26 38 0 46 3 46 19 0 29 -39 71 -65 71 -14 0 -32 -11 -44 -26z m67 -21 c2
-8 -6 -13 -22 -13 -25 0 -33 10 -19 24 10 10 36 3 41 -11z"/>
<path d="M1806 8874 c-30 -29 -14 -58 40 -73 42 -11 44 -33 3 -31 -60 3 -66 1
-45 -15 43 -33 111 -9 104 36 -2 18 -13 27 -46 37 -45 15 -47 34 -4 32 52 -4
59 -1 38 15 -26 20 -71 19 -90 -1z"/>
<path d="M2059 8871 c-49 -40 -18 -131 45 -131 35 0 66 36 66 75 0 65 -62 96
-111 56z m71 -25 c26 -32 -7 -87 -44 -73 -16 6 -23 66 -9 80 11 12 40 8 53 -7z"/>
<path d="M2210 8815 c0 -60 3 -75 15 -75 11 0 15 12 15 48 0 52 6 65 33 75 20
7 23 27 4 27 -7 0 -18 -5 -25 -12 -9 -9 -12 -9 -12 0 0 7 -7 12 -15 12 -12 0
-15 -15 -15 -75z"/>
<path d="M2321 8864 c-51 -64 5 -147 76 -115 31 14 24 24 -18 25 -53 2 -48 26
5 26 38 0 46 3 46 19 0 29 -39 71 -65 71 -14 0 -32 -11 -44 -26z m67 -21 c2
-8 -6 -13 -22 -13 -25 0 -33 10 -19 24 10 10 36 3 41 -11z"/>
<path d="M564 8636 c-3 -8 -4 -23 -2 -33 3 -11 6 -6 9 15 6 34 2 42 -7 18z"/>
<path d="M1918 8610 c-2 -22 0 -40 4 -40 5 0 8 18 8 40 0 22 -2 40 -4 40 -2 0
-6 -18 -8 -40z"/>
<path d="M762 8605 c0 -16 2 -22 5 -12 2 9 2 23 0 30 -3 6 -5 -1 -5 -18z"/>
<path d="M1808 8593 c6 -2 18 -2 25 0 6 3 1 5 -13 5 -14 0 -19 -2 -12 -5z"/>
<path d="M173 8253 c12 -3 17 -16 19 -41 l1 -37 4 35 c3 19 10 38 16 42 7 4
-4 7 -23 7 -19 -1 -27 -3 -17 -6z"/>
<path d="M232 8220 c0 -33 2 -39 7 -21 9 34 29 37 34 6 4 -24 4 -24 3 2 -1 18
-7 28 -16 28 -8 0 -18 7 -22 15 -4 8 -6 -5 -6 -30z"/>
<path d="M1281 8218 c1 -24 3 -35 6 -25 2 9 13 17 24 17 10 0 19 4 19 9 0 5
-9 7 -20 4 -14 -4 -20 0 -20 12 0 12 6 16 20 12 11 -3 20 -1 20 4 0 5 -11 9
-25 9 -23 0 -25 -4 -24 -42z"/>
<path d="M1408 8248 c-2 -7 -1 -26 3 -43 6 -28 7 -26 8 13 1 42 -3 53 -11 30z"/>
<path d="M1488 8249 c-6 -17 3 -69 11 -69 7 0 6 69 -2 76 -3 3 -7 0 -9 -7z"/>
<path d="M2458 8253 c7 -3 16 -2 19 1 4 3 -2 6 -13 5 -11 0 -14 -3 -6 -6z"/>
<path d="M2590 8250 c0 -5 -6 -10 -14 -10 -8 0 -16 -7 -20 -15 -8 -23 4 -45
25 -45 15 0 19 7 19 40 0 22 -2 40 -5 40 -3 0 -5 -4 -5 -10z m0 -40 c0 -11 -4
-20 -9 -20 -14 0 -23 18 -16 30 10 17 25 11 25 -10z"/>
<path d="M3384 8248 c-7 -11 22 -39 40 -37 6 0 1 5 -11 11 -28 14 -30 32 -3
25 11 -3 18 -1 14 4 -7 13 -31 11 -40 -3z"/>
<path d="M6301 8218 c1 -24 4 -33 6 -21 2 12 12 24 21 26 15 4 15 5 0 6 -26 2
-22 19 5 24 19 4 18 4 -5 6 -27 1 -28 -1 -27 -41z"/>
<path d="M6512 8220 c0 -33 2 -39 7 -21 9 34 29 37 34 6 4 -24 4 -24 3 2 -1
18 -7 28 -16 28 -8 0 -18 7 -22 15 -4 8 -6 -5 -6 -30z"/>
<path d="M6933 8220 c0 -25 2 -35 4 -22 2 12 2 32 0 45 -2 12 -4 2 -4 -23z"/>
<path d="M7668 8249 c-6 -17 3 -69 11 -69 7 0 6 69 -2 76 -3 3 -7 0 -9 -7z"/>
<path d="M7703 8220 c0 -25 2 -35 4 -22 2 12 2 32 0 45 -2 12 -4 2 -4 -23z"/>
<path d="M8013 8220 c-1 -25 1 -37 4 -27 4 15 7 16 21 5 15 -11 15 -11 5 3
-10 12 -10 18 0 29 10 12 9 12 -5 1 -14 -10 -17 -9 -21 11 -2 13 -4 3 -4 -22z"/>
<path d="M8618 8229 c3 -20 0 -34 -9 -40 -10 -6 -5 -8 16 -8 17 0 24 3 18 6
-7 2 -13 20 -13 39 0 19 -4 34 -8 34 -5 0 -6 -14 -4 -31z"/>
<path d="M8722 8220 c-1 -34 1 -41 9 -30 8 11 12 12 16 3 2 -7 9 -13 15 -13 6
0 6 6 -2 15 -10 12 -10 18 0 30 9 10 9 15 1 15 -6 0 -11 -4 -11 -10 0 -20 -19
-10 -23 13 -2 12 -5 2 -5 -23z"/>
<path d="M8978 8248 c-2 -7 -1 -26 3 -43 6 -28 7 -26 8 13 1 42 -3 53 -11 30z"/>
<path d="M9323 8220 c0 -25 2 -35 4 -22 2 12 2 32 0 45 -2 12 -4 2 -4 -23z"/>
<path d="M9613 8220 c0 -25 2 -35 4 -22 2 12 2 32 0 45 -2 12 -4 2 -4 -23z"/>
<path d="M9898 8249 c-6 -17 3 -69 11 -69 7 0 6 69 -2 76 -3 3 -7 0 -9 -7z"/>
<path d="M10098 8248 c-2 -7 -1 -26 3 -43 l7 -30 1 28 c0 15 1 30 0 33 0 4 5
11 13 15 10 7 9 9 -3 9 -9 0 -19 -6 -21 -12z"/>
<path d="M10153 8220 c0 -25 2 -35 4 -22 2 12 2 32 0 45 -2 12 -4 2 -4 -23z"/>
<path d="M2760 8222 c0 -17 3 -33 8 -35 9 -6 8 50 -1 60 -4 3 -7 -8 -7 -25z"/>
<path d="M3320 8222 c0 -17 3 -33 8 -35 9 -6 8 50 -1 60 -4 3 -7 -8 -7 -25z"/>
<path d="M3880 8222 c0 -17 3 -33 8 -35 9 -6 8 50 -1 60 -4 3 -7 -8 -7 -25z"/>
<path d="M9090 8222 c0 -17 3 -33 8 -35 9 -6 8 50 -1 60 -4 3 -7 -8 -7 -25z"/>
<path d="M9230 8222 c0 -17 3 -33 8 -35 9 -6 8 50 -1 60 -4 3 -7 -8 -7 -25z"/>
<path d="M9290 8222 c0 -17 3 -33 8 -35 9 -6 8 50 -1 60 -4 3 -7 -8 -7 -25z"/>
<path d="M9580 8222 c0 -17 3 -33 8 -35 9 -6 8 50 -1 60 -4 3 -7 -8 -7 -25z"/>
<path d="M10170 8222 c0 -17 3 -33 8 -35 9 -6 8 50 -1 60 -4 3 -7 -8 -7 -25z"/>
<path d="M292 8210 c0 -19 2 -27 5 -17 2 9 2 25 0 35 -3 9 -5 1 -5 -18z"/>
<path d="M317 8233 c-7 -6 11 -33 22 -33 4 0 7 9 8 20 2 19 -16 27 -30 13z"/>
<path d="M420 8236 c0 -2 9 -6 20 -9 11 -3 18 -1 14 4 -5 9 -34 13 -34 5z"/>
<path d="M518 8233 c7 -3 16 -2 19 1 4 3 -2 6 -13 5 -11 0 -14 -3 -6 -6z"/>
<path d="M590 8236 c0 -2 9 -6 20 -9 11 -3 18 -1 14 4 -5 9 -34 13 -34 5z"/>
<path d="M658 8233 c7 -3 16 -2 19 1 4 3 -2 6 -13 5 -11 0 -14 -3 -6 -6z"/>
<path d="M702 8210 c0 -19 2 -27 5 -17 2 9 2 25 0 35 -3 9 -5 1 -5 -18z"/>
<path d="M728 8210 c2 -16 6 -30 8 -30 2 0 4 14 4 30 0 17 -4 30 -8 30 -5 0
-7 -13 -4 -30z"/>
<path d="M755 8230 c3 -5 8 -10 11 -10 2 0 4 5 4 10 0 6 -5 10 -11 10 -5 0 -7
-4 -4 -10z"/>
<path d="M790 8232 c0 -4 9 -8 19 -8 11 0 17 4 15 8 -3 4 -12 8 -20 8 -8 0
-14 -4 -14 -8z"/>
<path d="M877 8234 c-13 -13 -7 -24 14 -24 11 0 19 5 17 12 -5 14 -22 21 -31
12z"/>
<path d="M968 8233 c7 -3 16 -2 19 1 4 3 -2 6 -13 5 -11 0 -14 -3 -6 -6z"/>
<path d="M1017 8234 c-13 -13 -7 -24 14 -24 11 0 19 5 17 12 -5 14 -22 21 -31
12z"/>
<path d="M1070 8210 c0 -16 2 -30 4 -30 2 0 6 14 8 30 3 17 1 30 -4 30 -4 0
-8 -13 -8 -30z"/>
<path d="M1154 8226 c-12 -33 23 -65 40 -37 4 5 -3 7 -14 4 -11 -3 -20 0 -20
6 0 6 9 11 21 11 12 0 19 5 17 13 -7 18 -37 21 -44 3z m33 -2 c-3 -3 -12 -4
-19 -1 -8 3 -5 6 6 6 11 1 17 -2 13 -5z"/>
<path d="M1212 8210 c0 -19 2 -27 5 -17 2 9 2 25 0 35 -3 9 -5 1 -5 -18z"/>
<path d="M1369 8232 c11 -8 10 -11 -5 -15 -16 -4 -15 -5 4 -6 25 -1 26 20 1
27 -12 3 -12 2 0 -6z"/>
<path d="M1448 8233 c7 -3 16 -2 19 1 4 3 -2 6 -13 5 -11 0 -14 -3 -6 -6z"/>
<path d="M1526 8232 c-2 -4 4 -8 14 -8 10 0 16 4 14 8 -3 4 -9 8 -14 8 -5 0
-11 -4 -14 -8z"/>
<path d="M1580 8210 c0 -16 2 -30 4 -30 2 0 6 14 8 30 3 17 1 30 -4 30 -4 0
-8 -13 -8 -30z"/>
<path d="M1614 8225 c-13 -32 23 -63 40 -36 4 5 -3 7 -14 4 -11 -3 -20 -1 -20
5 0 6 10 13 23 15 21 4 21 4 -3 6 -23 2 -24 3 -5 11 18 8 18 9 2 9 -10 1 -20
-6 -23 -14z"/>
<path d="M1700 8236 c0 -2 9 -6 20 -9 11 -3 18 -1 14 4 -5 9 -34 13 -34 5z"/>
<path d="M1754 8225 c-13 -32 23 -63 40 -36 4 5 -3 7 -14 4 -11 -3 -20 -1 -20
5 0 6 10 13 23 15 21 4 21 4 -3 6 -23 2 -24 3 -5 11 18 8 18 9 2 9 -10 1 -20
-6 -23 -14z"/>
<path d="M1811 8208 c2 -32 2 -32 6 -5 3 20 9 27 19 23 8 -3 14 -1 14 4 0 6
-9 10 -20 10 -16 0 -20 -6 -19 -32z"/>
<path d="M1919 8232 c11 -8 10 -11 -5 -15 -16 -4 -15 -5 4 -6 25 -1 26 20 1
27 -12 3 -12 2 0 -6z"/>
<path d="M1952 8210 c0 -19 2 -27 5 -17 2 9 2 25 0 35 -3 9 -5 1 -5 -18z"/>
<path d="M2104 8226 c-9 -24 4 -48 23 -44 12 2 18 12 18 28 0 29 -32 41 -41
16z m36 -16 c0 -11 -7 -20 -15 -20 -8 0 -15 9 -15 20 0 11 7 20 15 20 8 0 15
-9 15 -20z"/>
<path d="M2161 8213 c-1 -27 3 -33 19 -33 16 0 20 6 19 33 -2 30 -2 30 -6 5
-2 -16 -8 -28 -13 -28 -5 0 -11 12 -13 28 -4 25 -4 25 -6 -5z"/>
<path d="M2250 8232 c0 -4 9 -8 19 -8 11 0 17 4 15 8 -3 4 -12 8 -20 8 -8 0
-14 -4 -14 -8z"/>
<path d="M2315 8232 c13 -10 18 -42 6 -42 -5 0 -12 6 -14 13 -3 7 -6 4 -6 -6
-2 -31 34 -16 37 16 3 21 -1 27 -15 27 -10 0 -14 -4 -8 -8z"/>
<path d="M2361 8208 c2 -30 2 -31 6 -5 5 34 20 35 26 2 4 -23 4 -23 3 2 -1 18
-7 29 -18 31 -15 3 -18 -3 -17 -30z"/>
<path d="M2472 8210 c0 -19 2 -27 5 -17 2 9 2 25 0 35 -3 9 -5 1 -5 -18z"/>
<path d="M2501 8208 c2 -30 2 -31 6 -5 5 34 20 35 26 2 4 -23 4 -23 3 2 -1 18
-7 29 -18 31 -15 3 -18 -3 -17 -30z"/>
<path d="M2663 8234 c9 -3 17 -14 17 -24 0 -10 -8 -21 -17 -24 -14 -4 -14 -4
2 -3 14 2 20 10 20 27 0 17 -6 25 -20 27 -16 1 -16 1 -2 -3z"/>
<path d="M2701 8218 c-1 -31 15 -46 32 -29 9 9 8 11 -5 6 -13 -5 -18 0 -21 22
l-4 28 -2 -27z"/>
<path d="M2822 8210 c0 -19 2 -27 5 -17 2 9 2 25 0 35 -3 9 -5 1 -5 -18z"/>
<path d="M2848 8210 c2 -16 6 -30 8 -30 2 0 4 14 4 30 0 17 -4 30 -8 30 -5 0
-7 -13 -4 -30z"/>
<path d="M2875 8230 c3 -5 8 -10 11 -10 2 0 4 5 4 10 0 6 -5 10 -11 10 -5 0
-7 -4 -4 -10z"/>
<path d="M2916 8232 c-2 -4 4 -8 14 -8 10 0 16 4 14 8 -3 4 -9 8 -14 8 -5 0
-11 -4 -14 -8z"/>
<path d="M2962 8210 c0 -19 2 -27 5 -17 2 9 2 25 0 35 -3 9 -5 1 -5 -18z"/>
<path d="M3007 8234 c-13 -13 -7 -24 14 -24 11 0 19 5 17 12 -5 14 -22 21 -31
12z"/>
<path d="M3104 8231 c18 -7 18 -8 3 -14 -24 -9 -21 -37 3 -37 16 0 20 7 20 30
0 25 -4 30 -22 29 -21 0 -21 -1 -4 -8z m16 -31 c0 -5 -4 -10 -10 -10 -5 0 -10
5 -10 10 0 6 5 10 10 10 6 0 10 -4 10 -10z"/>
<path d="M3150 8210 c0 -30 21 -42 35 -20 3 6 -1 7 -9 4 -12 -4 -16 0 -16 16
0 16 4 20 16 16 8 -3 12 -2 9 4 -14 22 -35 10 -35 -20z"/>
<path d="M3223 8234 c9 -3 17 -14 17 -24 0 -10 -8 -21 -17 -24 -14 -4 -14 -4
2 -3 14 2 20 10 20 27 0 17 -6 25 -20 27 -16 1 -16 1 -2 -3z"/>
<path d="M3261 8218 c-1 -31 15 -46 32 -29 9 9 8 11 -5 6 -13 -5 -18 0 -21 22
l-4 28 -2 -27z"/>
<path d="M3543 8234 c18 -6 18 -6 0 -20 -15 -12 -15 -13 -1 -8 10 3 18 -1 21
-13 3 -10 5 -5 4 12 -2 22 -7 30 -22 32 -17 2 -17 1 -2 -3z"/>
<path d="M3584 8225 c-8 -20 2 -45 18 -44 10 0 10 2 1 6 -7 2 -13 13 -13 23 0
10 6 21 13 23 9 4 9 6 -1 6 -7 1 -15 -6 -18 -14z"/>
<path d="M3622 8210 c0 -19 2 -27 5 -17 2 9 2 25 0 35 -3 9 -5 1 -5 -18z"/>
<path d="M3647 8233 c-13 -12 -7 -44 10 -50 15 -6 15 -7 -3 -14 -18 -7 -17 -8
3 -8 15 -1 21 5 20 18 0 11 -6 17 -14 14 -8 -3 -13 3 -13 17 0 16 4 20 16 16
8 -3 12 -2 9 4 -7 12 -19 13 -28 3z"/>
<path d="M3707 8234 c-13 -13 -7 -24 14 -24 11 0 19 5 17 12 -5 14 -22 21 -31
12z"/>
<path d="M3760 8210 c0 -16 2 -30 4 -30 2 0 6 14 8 30 3 17 1 30 -4 30 -4 0
-8 -13 -8 -30z"/>
<path d="M3838 8233 c7 -3 16 -2 19 1 4 3 -2 6 -13 5 -11 0 -14 -3 -6 -6z"/>
<path d="M4753 8234 c9 -3 17 -14 17 -24 0 -10 -8 -21 -17 -24 -14 -4 -14 -4
2 -3 14 2 20 10 20 27 0 17 -6 25 -20 27 -16 1 -16 1 -2 -3z"/>
<path d="M4792 8210 c0 -19 2 -27 5 -17 2 9 2 25 0 35 -3 9 -5 1 -5 -18z"/>
<path d="M4866 8232 c-2 -4 4 -8 14 -8 10 0 16 4 14 8 -3 4 -9 8 -14 8 -5 0
-11 -4 -14 -8z"/>
<path d="M4912 8210 c0 -19 2 -27 5 -17 2 9 2 25 0 35 -3 9 -5 1 -5 -18z"/>
<path d="M4936 8233 c7 -4 14 -19 17 -33 4 -22 5 -21 4 4 -1 17 -9 31 -17 33
-10 3 -11 2 -4 -4z"/>
<path d="M6364 8226 c-9 -24 4 -48 23 -44 12 2 18 12 18 28 0 29 -32 41 -41
16z m36 -16 c0 -11 -7 -20 -15 -20 -8 0 -15 9 -15 20 0 11 7 20 15 20 8 0 15
-9 15 -20z"/>
<path d="M6420 8210 c0 -16 2 -30 4 -30 2 0 6 14 8 30 3 17 1 30 -4 30 -4 0
-8 -13 -8 -30z"/>
<path d="M6572 8210 c0 -19 2 -27 5 -17 2 9 2 25 0 35 -3 9 -5 1 -5 -18z"/>
<path d="M6597 8233 c-7 -6 11 -33 22 -33 4 0 7 9 8 20 2 19 -16 27 -30 13z"/>
<path d="M6688 8233 c7 -3 16 -2 19 1 4 3 -2 6 -13 5 -11 0 -14 -3 -6 -6z"/>
<path d="M6745 8232 c13 -10 18 -42 6 -42 -5 0 -12 6 -14 13 -3 7 -6 4 -6 -6
-2 -31 34 -16 37 16 3 21 -1 27 -15 27 -10 0 -14 -4 -8 -8z"/>
<path d="M6792 8210 c0 -19 2 -27 5 -17 2 9 2 25 0 35 -3 9 -5 1 -5 -18z"/>
<path d="M6818 8210 c2 -16 6 -30 8 -30 2 0 4 14 4 30 0 17 -4 30 -8 30 -5 0
-7 -13 -4 -30z"/>
<path d="M6845 8230 c3 -5 8 -10 11 -10 2 0 4 5 4 10 0 6 -5 10 -11 10 -5 0
-7 -4 -4 -10z"/>
<path d="M6880 8232 c0 -4 9 -8 19 -8 11 0 17 4 15 8 -3 4 -12 8 -20 8 -8 0
-14 -4 -14 -8z"/>
<path d="M6979 8232 c11 -8 10 -11 -5 -15 -16 -4 -15 -5 4 -6 25 -1 26 20 1
27 -12 3 -12 2 0 -6z"/>
<path d="M7136 8232 c-2 -4 4 -8 14 -8 10 0 16 4 14 8 -3 4 -9 8 -14 8 -5 0
-11 -4 -14 -8z"/>
<path d="M7182 8220 c0 -14 2 -19 5 -12 2 6 2 18 0 25 -3 6 -5 1 -5 -13z"/>
<path d="M7222 8210 c0 -19 2 -27 5 -17 2 9 2 25 0 35 -3 9 -5 1 -5 -18z"/>
<path d="M7274 8225 c-4 -8 -4 -22 0 -30 6 -16 36 -21 36 -5 0 5 -7 7 -15 4
-11 -4 -15 0 -15 16 0 16 4 20 16 16 8 -3 12 -2 9 4 -9 15 -25 12 -31 -5z"/>
<path d="M7343 8234 c18 -6 18 -6 0 -20 -15 -12 -15 -13 -1 -8 10 3 18 -1 21
-13 3 -10 5 -5 4 12 -2 22 -7 30 -22 32 -17 2 -17 1 -2 -3z"/>
<path d="M7382 8210 c0 -19 2 -27 5 -17 2 9 2 25 0 35 -3 9 -5 1 -5 -18z"/>
<path d="M7406 8233 c7 -4 14 -19 17 -33 4 -22 5 -21 4 4 -1 17 -9 31 -17 33
-10 3 -11 2 -4 -4z"/>
<path d="M7471 8218 c-1 -31 15 -46 32 -29 9 9 8 11 -5 6 -13 -5 -18 0 -21 22
l-4 28 -2 -27z"/>
<path d="M7530 8236 c0 -2 9 -6 20 -9 11 -3 18 -1 14 4 -5 9 -34 13 -34 5z"/>
<path d="M7584 8225 c-13 -32 23 -63 40 -36 4 5 -3 7 -14 4 -11 -3 -20 -1 -20
5 0 6 10 13 23 15 21 4 21 4 -3 6 -23 2 -24 3 -5 11 18 8 18 9 2 9 -10 1 -20
-6 -23 -14z"/>
<path d="M7728 8210 c2 -16 6 -30 8 -30 2 0 4 14 4 30 0 17 -4 30 -8 30 -5 0
-7 -13 -4 -30z"/>
<path d="M7779 8232 c11 -8 10 -11 -5 -15 -16 -4 -15 -5 4 -6 25 -1 26 20 1
27 -12 3 -12 2 0 -6z"/>
<path d="M7863 8234 c18 -6 18 -6 0 -20 -15 -12 -15 -13 -1 -8 10 3 18 -1 21
-13 3 -10 5 -5 4 12 -2 22 -7 30 -22 32 -17 2 -17 1 -2 -3z"/>
<path d="M7902 8200 c-1 -25 2 -40 6 -34 4 6 15 13 25 17 21 8 20 49 -1 53 -7
1 -8 0 -2 -3 15 -7 12 -43 -4 -43 -8 0 -17 12 -19 28 -3 17 -4 11 -5 -18z"/>
<path d="M7962 8210 c0 -19 2 -27 5 -17 2 9 2 25 0 35 -3 9 -5 1 -5 -18z"/>
<path d="M8089 8232 c11 -8 10 -11 -5 -15 -16 -4 -15 -5 4 -6 25 -1 26 20 1
27 -12 3 -12 2 0 -6z"/>
<path d="M8264 8229 c-4 -7 1 -16 12 -22 17 -10 17 -11 -1 -18 -16 -6 -17 -8
-3 -8 25 -1 34 20 14 35 -16 12 -16 13 1 17 15 4 16 5 1 6 -9 0 -20 -4 -24
-10z"/>
<path d="M8327 8233 c-4 -3 -7 -21 -7 -40 0 -32 1 -32 20 -16 22 20 27 63 7
63 -8 0 -17 -3 -20 -7z m23 -23 c0 -11 -4 -20 -10 -20 -5 0 -10 9 -10 20 0 11
5 20 10 20 6 0 10 -9 10 -20z"/>
<path d="M8395 8231 c19 -9 19 -10 -4 -10 -17 -1 -22 -5 -17 -17 3 -9 6 -18 6
-20 0 -2 8 -4 17 -4 15 0 14 2 -3 15 -18 14 -18 14 4 15 28 0 25 24 -4 27 -18
3 -18 2 1 -6z"/>
<path d="M8441 8226 c-14 -17 -4 -46 17 -46 13 0 12 3 -4 15 -19 15 -19 15 0
30 11 8 15 15 9 15 -6 0 -16 -6 -22 -14z"/>
<path d="M8498 8233 c6 -2 12 -13 12 -23 0 -10 -6 -21 -12 -23 -7 -3 -4 -6 8
-6 17 -1 20 4 16 29 -3 20 -10 30 -21 29 -10 0 -11 -2 -3 -6z"/>
<path d="M8565 8231 c17 -8 18 -10 3 -10 -19 -1 -26 -41 -8 -41 5 0 7 7 4 15
-4 8 -1 15 4 15 6 0 13 -8 16 -17 2 -10 4 -5 3 12 -2 22 -8 31 -22 32 l-20 3
20 -9z"/>
<path d="M8784 8226 c-9 -23 3 -46 23 -45 17 1 17 2 1 6 -22 6 -24 23 -2 23 9
0 14 5 12 12 -7 19 -27 21 -34 4z"/>
<path d="M8842 8209 c8 -25 8 -33 -3 -40 -10 -6 -10 -9 -2 -9 14 0 43 51 42
72 0 7 -5 2 -11 -12 l-10 -25 -9 23 c-13 34 -19 26 -7 -9z"/>
<path d="M9023 8234 c9 -3 17 -14 17 -24 0 -10 -8 -21 -17 -24 -14 -4 -14 -4
2 -3 14 2 20 10 20 27 0 17 -6 25 -20 27 -16 1 -16 1 -2 -3z"/>
<path d="M9124 8225 c-13 -32 23 -63 40 -36 4 5 -3 7 -14 4 -11 -3 -20 -1 -20
5 0 6 10 13 23 15 21 4 21 4 -3 6 -23 2 -24 3 -5 11 18 8 18 9 2 9 -10 1 -20
-6 -23 -14z"/>
<path d="M9180 8236 c0 -2 9 -6 20 -9 11 -3 18 -1 14 4 -5 9 -34 13 -34 5z"/>
<path d="M9348 8210 c2 -16 6 -30 8 -30 2 0 4 14 4 30 0 17 -4 30 -8 30 -5 0
-7 -13 -4 -30z"/>
<path d="M9387 8234 c-13 -13 -7 -24 14 -24 11 0 19 5 17 12 -5 14 -22 21 -31
12z"/>
<path d="M9484 8231 c18 -7 18 -8 3 -14 -24 -9 -21 -37 3 -37 16 0 20 7 20 30
0 25 -4 30 -22 29 -21 0 -21 -1 -4 -8z m16 -31 c0 -5 -4 -10 -10 -10 -5 0 -10
5 -10 10 0 6 5 10 10 10 6 0 10 -4 10 -10z"/>
<path d="M9522 8220 c0 -14 2 -19 5 -12 2 6 2 18 0 25 -3 6 -5 1 -5 -13z"/>
<path d="M9562 8210 c0 -19 2 -27 5 -17 2 9 2 25 0 35 -3 9 -5 1 -5 -18z"/>
<path d="M9677 8233 c-11 -10 -8 -41 4 -49 6 -3 16 -1 22 5 9 9 8 11 -5 6 -14
-6 -18 -2 -18 15 0 16 4 20 16 16 8 -3 12 -2 9 4 -7 12 -19 13 -28 3z"/>
<path d="M9731 8208 c2 -31 2 -31 6 -5 2 15 8 27 13 27 5 0 11 -12 13 -27 4
-26 4 -26 6 5 1 26 -3 32 -19 32 -16 0 -20 -6 -19 -32z"/>
<path d="M9798 8233 c6 -2 18 -2 25 0 6 3 1 5 -13 5 -14 0 -19 -2 -12 -5z"/>
<path d="M9855 8232 c13 -10 18 -42 6 -42 -5 0 -12 6 -14 13 -3 7 -6 4 -6 -6
-2 -31 34 -16 37 16 3 21 -1 27 -15 27 -10 0 -14 -4 -8 -8z"/>
<path d="M9954 8226 c-9 -24 4 -48 23 -44 12 2 18 12 18 28 0 29 -32 41 -41
16z m36 -16 c0 -11 -7 -20 -15 -20 -8 0 -15 9 -15 20 0 11 7 20 15 20 8 0 15
-9 15 -20z"/>
<path d="M10011 8208 c2 -31 2 -31 6 -5 2 15 8 27 13 27 5 0 11 -12 13 -27 4
-26 4 -26 6 5 1 26 -3 32 -19 32 -16 0 -20 -6 -19 -32z"/>
<path d="M10204 8225 c-13 -32 23 -63 40 -36 4 5 -3 7 -14 4 -11 -3 -20 -1
-20 5 0 6 10 13 23 15 21 4 21 4 -3 6 -23 2 -24 3 -5 11 18 8 18 9 2 9 -10 1
-20 -6 -23 -14z"/>
<path d="M10260 8210 c0 -16 2 -30 4 -30 2 0 6 14 8 30 3 17 1 30 -4 30 -4 0
-8 -13 -8 -30z"/>
<path d="M10297 8233 c-7 -6 11 -33 22 -33 4 0 7 9 8 20 2 19 -16 27 -30 13z"/>
<path d="M2058 8203 c2 -12 6 -23 7 -23 1 0 5 11 7 23 3 14 0 24 -7 24 -7 0
-10 -10 -7 -24z"/>
<path d="M435 8208 c19 -11 19 -11 0 -19 -16 -6 -17 -8 -3 -8 23 -1 34 19 17
30 -8 5 -18 9 -24 9 -5 -1 -1 -6 10 -12z"/>
<path d="M511 8211 c-18 -11 -6 -30 19 -28 10 1 17 5 14 9 -3 4 -12 5 -22 2
-14 -5 -14 -3 2 10 21 17 11 22 -13 7z"/>
<path d="M605 8208 c19 -11 19 -11 0 -19 -16 -6 -17 -8 -3 -8 23 -1 34 19 17
30 -8 5 -18 9 -24 9 -5 -1 -1 -6 10 -12z"/>
<path d="M651 8211 c-18 -11 -6 -30 19 -28 10 1 17 5 14 9 -3 4 -12 5 -22 2
-14 -5 -14 -3 2 10 21 17 11 22 -13 7z"/>
<path d="M975 8208 c19 -11 19 -11 0 -19 -16 -6 -17 -8 -3 -8 23 -1 34 19 17
30 -8 5 -18 9 -24 9 -5 -1 -1 -6 10 -12z"/>
<path d="M1455 8208 c19 -11 19 -11 0 -19 -16 -6 -17 -8 -3 -8 23 -1 34 19 17
30 -8 5 -18 9 -24 9 -5 -1 -1 -6 10 -12z"/>
<path d="M1715 8208 c19 -11 19 -11 0 -19 -16 -6 -17 -8 -3 -8 23 -1 34 19 17
30 -8 5 -18 9 -24 9 -5 -1 -1 -6 10 -12z"/>
<path d="M3450 8208 c0 -9 5 -20 10 -23 13 -8 13 5 0 25 -8 13 -10 13 -10 -2z"/>
<path d="M3496 8205 c-9 -26 -7 -32 5 -12 6 10 9 21 6 23 -2 3 -7 -2 -11 -11z"/>
<path d="M3831 8211 c-18 -11 -6 -30 19 -28 10 1 17 5 14 9 -3 4 -12 5 -22 2
-14 -5 -14 -3 2 10 21 17 11 22 -13 7z"/>
<path d="M6695 8208 c19 -11 19 -11 0 -19 -16 -6 -17 -8 -3 -8 23 -1 34 19 17
30 -8 5 -18 9 -24 9 -5 -1 -1 -6 10 -12z"/>
<path d="M7545 8208 c19 -11 19 -11 0 -19 -16 -6 -17 -8 -3 -8 23 -1 34 19 17
30 -8 5 -18 9 -24 9 -5 -1 -1 -6 10 -12z"/>
<path d="M9195 8208 c19 -11 19 -11 0 -19 -16 -6 -17 -8 -3 -8 23 -1 34 19 17
30 -8 5 -18 9 -24 9 -5 -1 -1 -6 10 -12z"/>
<path d="M1850 8201 c0 -5 5 -13 10 -16 6 -3 10 -2 10 4 0 5 -4 13 -10 16 -5
3 -10 2 -10 -4z"/>
<path d="M7086 8197 c3 -10 9 -15 12 -12 3 3 0 11 -7 18 -10 9 -11 8 -5 -6z"/>
<path d="M8136 8197 c3 -10 9 -15 12 -12 3 3 0 11 -7 18 -10 9 -11 8 -5 -6z"/>
<path d="M8678 8203 c7 -3 16 -2 19 1 4 3 -2 6 -13 5 -11 0 -14 -3 -6 -6z"/>
<path d="M318 8188 c5 -5 16 -8 23 -6 8 3 3 7 -10 11 -17 4 -21 3 -13 -5z"/>
<path d="M790 8178 c0 -17 1 -17 20 -1 11 10 20 18 20 18 0 0 -9 1 -20 1 -12
0 -20 -7 -20 -18z"/>
<path d="M880 8186 c7 -7 13 -7 20 0 6 6 3 10 -10 10 -13 0 -16 -4 -10 -10z"/>
<path d="M1020 8186 c7 -7 13 -7 20 0 6 6 3 10 -10 10 -13 0 -16 -4 -10 -10z"/>
<path d="M1115 8190 c3 -5 8 -10 11 -10 2 0 4 5 4 10 0 6 -5 10 -11 10 -5 0
-7 -4 -4 -10z"/>
<path d="M1360 8186 c7 -7 13 -7 20 0 6 6 3 10 -10 10 -13 0 -16 -4 -10 -10z"/>
<path d="M1530 8186 c7 -7 13 -7 20 0 6 6 3 10 -10 10 -13 0 -16 -4 -10 -10z"/>
<path d="M1910 8186 c7 -7 13 -7 20 0 6 6 3 10 -10 10 -13 0 -16 -4 -10 -10z"/>
<path d="M2260 8186 c7 -7 13 -7 20 0 6 6 3 10 -10 10 -13 0 -16 -4 -10 -10z"/>
<path d="M2920 8186 c7 -7 13 -7 20 0 6 6 3 10 -10 10 -13 0 -16 -4 -10 -10z"/>
<path d="M3010 8186 c7 -7 13 -7 20 0 6 6 3 10 -10 10 -13 0 -16 -4 -10 -10z"/>
<path d="M3388 8188 c5 -5 16 -8 23 -6 8 3 3 7 -10 11 -17 4 -21 3 -13 -5z"/>
<path d="M3710 8186 c7 -7 13 -7 20 0 6 6 3 10 -10 10 -13 0 -16 -4 -10 -10z"/>
<path d="M4870 8186 c7 -7 13 -7 20 0 6 6 3 10 -10 10 -13 0 -16 -4 -10 -10z"/>
<path d="M6598 8188 c5 -5 16 -8 23 -6 8 3 3 7 -10 11 -17 4 -21 3 -13 -5z"/>
<path d="M6880 8178 c0 -17 1 -17 20 -1 11 10 20 18 20 18 0 0 -9 1 -20 1 -12
0 -20 -7 -20 -18z"/>
<path d="M6970 8186 c7 -7 13 -7 20 0 6 6 3 10 -10 10 -13 0 -16 -4 -10 -10z"/>
<path d="M7140 8186 c7 -7 13 -7 20 0 6 6 3 10 -10 10 -13 0 -16 -4 -10 -10z"/>
<path d="M7770 8186 c7 -7 13 -7 20 0 6 6 3 10 -10 10 -13 0 -16 -4 -10 -10z"/>
<path d="M8080 8186 c7 -7 13 -7 20 0 6 6 3 10 -10 10 -13 0 -16 -4 -10 -10z"/>
<path d="M9390 8186 c7 -7 13 -7 20 0 6 6 3 10 -10 10 -13 0 -16 -4 -10 -10z"/>
<path d="M10298 8188 c5 -5 16 -8 23 -6 8 3 3 7 -10 11 -17 4 -21 3 -13 -5z"/>
<path d="M9793 8183 c9 -2 23 -2 30 0 6 3 -1 5 -18 5 -16 0 -22 -2 -12 -5z"/>
<path d="M3588 8163 c6 -2 18 -2 25 0 6 3 1 5 -13 5 -14 0 -19 -2 -12 -5z"/>
<path d="M180 6807 c0 -7 6 -19 12 -25 10 -10 10 -15 -2 -22 -13 -8 -12 -10 3
-10 10 0 17 8 17 20 0 11 -4 20 -10 20 -5 0 -10 5 -10 11 0 5 5 7 10 4 6 -3
10 -1 10 4 0 6 -7 11 -15 11 -8 0 -15 -6 -15 -13z"/>
<path d="M281 6783 c1 -23 3 -29 6 -15 2 12 9 22 14 22 5 0 10 -10 10 -22 1
-19 2 -20 6 -5 3 11 -4 27 -16 38 l-21 20 1 -38z"/>
<path d="M230 6790 c0 -5 7 -7 15 -4 8 4 15 8 15 10 0 2 -7 4 -15 4 -8 0 -15
-4 -15 -10z"/>
<path d="M334 6786 c-7 -18 3 -36 19 -36 7 0 6 4 -3 10 -13 8 -12 10 3 10 10
0 17 5 15 12 -7 19 -27 21 -34 4z"/>
<path d="M381 6772 c2 -23 2 -24 6 -4 2 12 8 22 13 22 5 0 11 -10 13 -22 l4
-23 2 23 c1 27 18 29 24 2 4 -17 4 -17 3 2 -1 18 -8 23 -33 25 -30 3 -33 0
-32 -25z"/>
<path d="M464 6786 c-7 -18 3 -36 19 -36 7 0 6 4 -3 10 -13 8 -12 10 3 10 10
0 17 5 15 12 -7 19 -27 21 -34 4z"/>
<path d="M515 6790 c-3 -6 1 -13 10 -16 14 -6 14 -9 3 -16 -10 -8 -10 -9 1 -6
22 6 25 28 4 28 -15 0 -16 2 -3 10 9 6 10 10 3 10 -6 0 -15 -5 -18 -10z"/>
<path d="M230 6760 c0 -6 7 -10 15 -10 8 0 15 2 15 4 0 2 -7 6 -15 10 -8 3
-15 1 -15 -4z"/>
<path d="M413 6723 c130 -2 344 -2 475 0 130 1 23 2 -238 2 -261 0 -368 -1
-237 -2z"/>
<path d="M164 6620 c0 -52 1 -74 3 -47 2 26 2 68 0 95 -2 26 -3 4 -3 -48z"/>
<path d="M1134 6620 c0 -52 1 -74 3 -47 2 26 2 68 0 95 -2 26 -3 4 -3 -48z"/>
<path d="M263 6620 c0 -25 2 -35 4 -22 3 13 12 22 23 22 11 0 20 -9 23 -22 2
-13 4 -3 4 22 1 25 -1 37 -4 28 -2 -10 -13 -18 -23 -18 -10 0 -21 8 -23 18 -3
9 -5 -3 -4 -28z"/>
<path d="M337 6652 c6 -4 13 -23 16 -42 l4 -35 1 38 c2 34 4 37 32 37 28 0 30
-3 32 -37 l1 -38 4 35 c3 19 10 38 16 42 7 4 -17 8 -53 8 -36 0 -60 -4 -53 -8z"/>
<path d="M471 6618 c1 -24 3 -36 6 -27 2 10 13 19 24 22 28 7 21 41 -9 45 -20
3 -22 -1 -21 -40z m39 17 c0 -8 -7 -15 -15 -15 -8 0 -15 7 -15 15 0 8 7 15 15
15 8 0 15 -7 15 -15z"/>
<path d="M546 6645 c-3 -9 3 -20 14 -27 26 -17 25 -31 -1 -23 -15 5 -19 4 -15
-4 11 -16 36 -13 43 5 4 10 0 20 -10 26 -21 11 -22 32 -1 24 8 -3 12 -2 9 4
-9 15 -32 12 -39 -5z"/>
<path d="M950 6615 c7 -8 18 -15 25 -15 7 0 18 7 25 15 14 17 0 21 -17 4 -8
-8 -13 -8 -17 0 -4 6 -12 11 -18 11 -7 0 -6 -6 2 -15z"/>
<path d="M408 6513 c133 -2 351 -2 485 0 133 1 24 2 -243 2 -267 0 -376 -1
-242 -2z"/>
<path d="M463 5955 c-16 -30 -2 -109 20 -113 9 -2 17 1 17 7 0 6 -4 11 -10 11
-15 0 -12 57 3 63 8 4 9 8 1 14 -6 4 -13 15 -16 23 -4 12 -7 11 -15 -5z"/>
<path d="M250 5870 c0 -40 4 -70 10 -70 6 0 10 11 10 24 0 18 5 23 18 20 27
-7 45 11 45 45 0 39 -5 44 -48 47 l-35 3 0 -69z m64 35 c8 -21 -3 -45 -20 -45
-18 0 -28 24 -20 45 3 8 12 15 20 15 7 0 16 -7 20 -15z"/>
<path d="M366 5924 c-9 -8 -16 -24 -16 -34 0 -19 25 -50 40 -50 17 0 40 12 40
21 0 5 -11 7 -24 3 -13 -3 -27 -1 -30 5 -5 7 4 11 23 11 23 0 31 5 31 18 0 38
-37 54 -64 26z m44 -14 c0 -5 -9 -10 -21 -10 -11 0 -17 5 -14 10 3 6 13 10 21
10 8 0 14 -4 14 -10z"/>
<path d="M10505 5910 c-35 -36 -22 -40 15 -5 l26 25 24 -25 c13 -14 28 -25 34
-25 5 0 -3 14 -19 30 -16 17 -34 30 -40 30 -6 0 -24 -13 -40 -30z"/>
<path d="M590 5890 c0 -39 1 -40 33 -39 30 2 30 2 5 6 -34 5 -37 30 -5 36 l22
4 -22 2 c-13 0 -23 5 -23 10 0 5 10 12 23 14 19 4 18 4 -5 6 -26 1 -28 -2 -28
-39z"/>
<path d="M858 5918 c-2 -7 -1 -26 3 -43 6 -28 7 -26 8 13 1 42 -3 53 -11 30z"/>
<path d="M891 5888 c2 -30 3 -35 6 -15 2 15 9 27 14 27 5 0 10 -12 10 -27 2
-26 2 -26 6 -5 3 16 -3 31 -16 43 l-21 20 1 -43z"/>
<path d="M1173 5890 c0 -25 2 -35 4 -22 2 12 2 32 0 45 -2 12 -4 2 -4 -23z"/>
<path d="M1348 5919 c-6 -17 3 -69 11 -69 7 0 6 69 -2 76 -3 3 -7 0 -9 -7z"/>
<path d="M1641 5888 c1 -24 3 -35 6 -26 2 9 14 19 26 21 l22 4 -22 2 c-13 0
-23 7 -23 15 0 8 10 17 23 19 19 4 18 4 -5 6 -27 1 -28 -1 -27 -41z"/>
<path d="M1768 5919 c-6 -17 3 -69 11 -69 7 0 6 69 -2 76 -3 3 -7 0 -9 -7z"/>
<path d="M6501 5878 c1 -24 4 -33 6 -21 2 12 12 24 21 26 15 4 15 5 0 6 -26 2
-22 19 5 24 19 4 18 4 -5 6 -27 1 -28 -1 -27 -41z"/>
<path d="M6683 5880 c0 -25 2 -35 4 -22 2 12 2 32 0 45 -2 12 -4 2 -4 -23z"/>
<path d="M6842 5904 c-7 -8 -8 -14 -2 -14 5 0 10 -11 10 -25 0 -14 3 -25 8
-25 7 0 8 68 0 75 -1 1 -9 -3 -16 -11z"/>
<path d="M7212 5880 c1 -28 3 -34 5 -17 2 15 8 27 13 27 5 0 11 -12 13 -27 4
-26 4 -26 6 5 1 22 -4 32 -13 32 -8 0 -17 6 -19 13 -3 6 -5 -8 -5 -33z"/>
<path d="M7268 5908 c-2 -7 -1 -26 3 -43 6 -28 7 -26 8 13 1 42 -3 53 -11 30z"/>
<path d="M7298 5908 c-2 -7 -1 -26 3 -43 6 -28 7 -26 8 13 1 42 -3 53 -11 30z"/>
<path d="M714 5895 c-13 -32 23 -63 40 -36 4 5 -3 7 -14 4 -11 -3 -20 -1 -20
5 0 6 10 13 23 15 21 4 21 4 -3 6 -23 2 -24 3 -5 11 18 8 18 9 2 9 -10 1 -20
-6 -23 -14z"/>
<path d="M771 5878 c2 -32 2 -32 6 -5 3 20 9 27 19 23 8 -3 14 -1 14 4 0 6 -9
10 -20 10 -16 0 -20 -6 -19 -32z"/>
<path d="M942 5880 c0 -19 2 -27 5 -17 2 9 2 25 0 35 -3 9 -5 1 -5 -18z"/>
<path d="M971 5878 c2 -31 2 -31 6 -5 2 15 8 27 13 27 5 0 11 -12 13 -27 4
-26 4 -26 6 5 1 26 -3 32 -19 32 -16 0 -20 -6 -19 -32z"/>
<path d="M1026 5895 c-8 -22 3 -45 23 -46 13 0 12 -2 -4 -10 l-20 -9 20 3 c15
2 21 11 23 40 3 31 0 37 -16 37 -11 0 -22 -7 -26 -15z m34 -15 c0 -21 -15 -27
-25 -10 -7 12 2 30 16 30 5 0 9 -9 9 -20z"/>
<path d="M1133 5904 c18 -6 18 -6 0 -20 -15 -12 -15 -13 -1 -8 10 3 18 -1 21
-13 3 -10 5 -5 4 12 -2 22 -7 30 -22 32 -17 2 -17 1 -2 -3z"/>
<path d="M1200 5903 c5 -2 10 -13 10 -23 0 -10 -5 -21 -10 -23 -6 -3 -5 -4 2
-3 7 2 13 13 13 26 0 13 -6 24 -13 26 -7 1 -8 0 -2 -3z"/>
<path d="M1234 5896 c-9 -24 4 -48 23 -44 12 2 18 12 18 28 0 29 -32 41 -41
16z m36 -16 c0 -11 -7 -20 -15 -20 -8 0 -15 9 -15 20 0 11 7 20 15 20 8 0 15
-9 15 -20z"/>
<path d="M1291 5883 c-1 -27 3 -33 19 -33 16 0 20 6 19 33 -2 30 -2 30 -6 5
-2 -16 -8 -28 -13 -28 -5 0 -11 12 -13 28 -4 25 -4 25 -6 -5z"/>
<path d="M1467 5903 c-11 -10 -8 -41 4 -49 6 -3 16 -1 22 5 9 9 8 11 -5 6 -14
-6 -18 -2 -18 15 0 16 4 20 16 16 8 -3 12 -2 9 4 -7 12 -19 13 -28 3z"/>
<path d="M1521 5883 c-1 -27 3 -33 19 -33 16 0 20 6 19 33 -2 30 -2 30 -6 5
-2 -16 -8 -28 -13 -28 -5 0 -11 12 -13 28 -4 25 -4 25 -6 -5z"/>
<path d="M1580 5880 c0 -16 2 -30 4 -30 2 0 6 14 8 30 3 17 1 30 -4 30 -4 0
-8 -13 -8 -30z"/>
<path d="M1717 5904 c-13 -13 -7 -24 14 -24 11 0 19 5 17 12 -5 14 -22 21 -31
12z"/>
<path d="M1808 5903 c7 -3 16 -2 19 1 4 3 -2 6 -13 5 -11 0 -14 -3 -6 -6z"/>
<path d="M6562 5870 c0 -19 2 -27 5 -17 2 9 2 25 0 35 -3 9 -5 1 -5 -18z"/>
<path d="M6591 5868 c2 -30 2 -31 6 -5 5 34 20 35 26 2 4 -23 4 -23 3 2 -1 18
-7 29 -18 31 -15 3 -18 -3 -17 -30z"/>
<path d="M6644 5885 c-8 -20 2 -45 18 -44 10 0 10 2 1 6 -7 2 -13 13 -13 23 0
10 6 21 13 23 9 4 9 6 -1 6 -7 1 -15 -6 -18 -14z"/>
<path d="M6734 5886 c-9 -24 4 -48 23 -44 12 2 18 12 18 28 0 29 -32 41 -41
16z m36 -16 c0 -11 -7 -20 -15 -20 -8 0 -15 9 -15 20 0 11 7 20 15 20 8 0 15
-9 15 -20z"/>
<path d="M6791 5878 c-1 -31 15 -46 32 -29 9 9 8 11 -5 6 -13 -5 -18 0 -21 22
l-4 28 -2 -27z"/>
<path d="M6911 5868 c2 -30 2 -31 6 -5 5 34 20 35 26 2 4 -23 4 -23 3 2 -1 18
-7 29 -18 31 -15 3 -18 -3 -17 -30z"/>
<path d="M6968 5870 c2 -16 6 -30 8 -30 2 0 4 14 4 30 0 17 -4 30 -8 30 -5 0
-7 -13 -4 -30z"/>
<path d="M7013 5894 c9 -3 17 -14 17 -24 0 -10 -8 -21 -17 -24 -14 -4 -14 -4
2 -3 14 2 20 10 20 27 0 17 -6 25 -20 27 -16 1 -16 1 -2 -3z"/>
<path d="M7052 5870 c0 -19 2 -27 5 -17 2 9 2 25 0 35 -3 9 -5 1 -5 -18z"/>
<path d="M7097 5894 c-13 -13 -7 -24 14 -24 11 0 19 5 17 12 -5 14 -22 21 -31
12z"/>
<path d="M7320 5856 c0 -22 4 -36 8 -30 4 6 15 13 25 17 27 10 19 52 -10 53
-20 1 -23 -3 -23 -40z m40 14 c0 -11 -7 -20 -15 -20 -15 0 -21 21 -8 33 12 13
23 7 23 -13z"/>
<path d="M7470 5886 c0 -8 8 -17 18 -21 16 -7 15 -8 -3 -15 -16 -7 -17 -9 -3
-9 26 -1 32 19 12 35 -18 15 -18 15 -1 10 11 -3 16 -2 12 4 -9 15 -35 12 -35
-4z"/>
<path d="M7521 5884 c0 -11 3 -14 6 -6 3 7 2 16 -1 19 -3 4 -6 -2 -5 -13z"/>
<path d="M7614 5891 c18 -7 18 -8 3 -14 -24 -9 -21 -37 3 -37 16 0 20 7 20 30
0 25 -4 30 -22 29 -21 0 -21 -1 -4 -8z m16 -31 c0 -5 -4 -10 -10 -10 -5 0 -10
5 -10 10 0 6 5 10 10 10 6 0 10 -4 10 -10z"/>
<path d="M7654 5885 c-8 -20 2 -45 18 -44 10 0 10 2 1 6 -7 2 -13 13 -13 23 0
10 6 21 13 23 9 4 9 6 -1 6 -7 1 -15 -6 -18 -14z"/>
<path d="M7691 5868 c-1 -29 -5 -37 -23 -41 l-23 -4 23 -2 c26 -1 35 16 29 56
-3 24 -4 23 -6 -9z"/>
<path d="M7714 5885 c-8 -20 2 -45 18 -44 10 0 10 2 1 6 -7 2 -13 13 -13 23 0
10 6 21 13 23 9 4 9 6 -1 6 -7 1 -15 -6 -18 -14z"/>
<path d="M7751 5868 c-1 -29 -5 -37 -23 -41 l-23 -4 23 -2 c26 -1 35 16 29 56
-3 24 -4 23 -6 -9z"/>
<path d="M7774 5886 c-12 -33 23 -65 40 -37 4 5 -3 7 -14 4 -11 -3 -20 0 -20
6 0 6 9 11 21 11 12 0 19 5 17 13 -7 18 -37 21 -44 3z m33 -2 c-3 -3 -12 -4
-19 -1 -8 3 -5 6 6 6 11 1 17 -2 13 -5z"/>
<path d="M7831 5868 c2 -28 2 -29 6 -8 3 14 10 28 17 32 7 5 5 8 -6 8 -14 0
-18 -8 -17 -32z"/>
<path d="M7892 5870 c0 -19 2 -27 5 -17 2 9 2 25 0 35 -3 9 -5 1 -5 -18z"/>
<path d="M7914 5886 c-9 -24 4 -48 23 -44 12 2 18 12 18 28 0 29 -32 41 -41
16z m36 -16 c0 -11 -7 -20 -15 -20 -8 0 -15 9 -15 20 0 11 7 20 15 20 8 0 15
-9 15 -20z"/>
<path d="M1414 5861 c1 -33 11 -29 20 9 3 14 3 19 0 11 -5 -10 -8 -10 -14 -1
-4 6 -7 -2 -6 -19z"/>
<path d="M1815 5878 c19 -11 19 -11 0 -19 -16 -6 -17 -8 -3 -8 23 -1 34 19 17
30 -8 5 -18 9 -24 9 -5 -1 -1 -6 10 -12z"/>
<path d="M677 5873 c-4 -3 -7 -11 -7 -17 0 -6 5 -5 12 2 6 6 9 14 7 17 -3 3
-9 2 -12 -2z"/>
<path d="M816 5867 c3 -10 9 -15 12 -12 3 3 0 11 -7 18 -10 9 -11 8 -5 -6z"/>
<path d="M1720 5856 c7 -7 13 -7 20 0 6 6 3 10 -10 10 -13 0 -16 -4 -10 -10z"/>
<path d="M7566 5855 c4 -8 8 -15 10 -15 2 0 4 7 4 15 0 8 -4 15 -10 15 -5 0
-7 -7 -4 -15z"/>
<path d="M7100 5846 c7 -7 13 -7 20 0 6 6 3 10 -10 10 -13 0 -16 -4 -10 -10z"/>
<path d="M1247 5493 c-4 -3 -7 -15 -7 -25 0 -10 -6 -18 -12 -18 -9 0 -10 -2
-2 -8 7 -4 13 -16 15 -26 2 -11 11 -21 19 -23 12 -4 12 -3 2 5 -8 5 -14 26
-14 47 0 21 6 41 14 46 7 5 8 9 2 9 -6 0 -14 -3 -17 -7z"/>
<path d="M1629 5492 c7 -5 13 -26 13 -47 0 -21 -6 -42 -13 -47 -11 -8 -11 -9
1 -5 8 2 16 13 18 25 2 12 9 22 15 22 9 0 9 2 1 8 -7 4 -13 16 -15 26 -2 11
-11 21 -19 23 -12 4 -12 3 -1 -5z"/>
<path d="M920 5466 c-5 -15 -15 -36 -20 -47 -6 -10 -8 -19 -6 -19 9 0 48 82
42 87 -3 3 -10 -6 -16 -21z"/>
<path d="M1098 5478 c-8 -23 7 -63 25 -64 13 -2 13 -1 2 3 -21 6 -19 43 3 44
13 0 14 2 2 6 -8 3 -18 10 -21 15 -3 5 -8 4 -11 -4z"/>
<path d="M1177 5448 c-23 -56 -16 -58 11 -3 12 25 18 45 13 45 -4 0 -15 -19
-24 -42z"/>
<path d="M1428 5478 c-8 -23 7 -63 25 -64 13 -2 13 -1 2 3 -21 6 -19 43 3 44
13 0 14 2 2 6 -8 3 -18 10 -21 15 -3 5 -8 4 -11 -4z"/>
<path d="M1498 5483 c6 -2 12 -17 12 -33 0 -16 -6 -31 -12 -33 -7 -3 1 -5 17
-5 17 0 24 2 18 5 -7 2 -13 17 -13 33 0 16 6 31 13 33 6 3 -1 5 -18 5 -16 0
-24 -2 -17 -5z"/>
<path d="M1590 5481 c0 -5 -9 -11 -21 -14 -29 -8 -23 -52 9 -53 19 -1 22 4 22
37 0 22 -2 39 -5 39 -3 0 -5 -4 -5 -9z m0 -35 c0 -16 -18 -31 -27 -22 -8 8 5
36 17 36 5 0 10 -6 10 -14z"/>
<path d="M1773 5483 c9 -2 23 -2 30 0 6 3 -1 5 -18 5 -16 0 -22 -2 -12 -5z"/>
<path d="M2315 5483 c11 -3 24 -10 28 -17 6 -7 7 -6 4 4 -2 8 -14 16 -28 17
-19 1 -20 1 -4 -4z"/>
<path d="M10425 5450 c16 -16 34 -30 40 -30 6 0 24 14 40 30 16 17 24 30 19
30 -6 0 -21 -11 -34 -25 l-24 -25 -26 25 c-37 35 -50 31 -15 -5z"/>
<path d="M960 5426 c0 -22 4 -36 8 -30 4 6 15 13 25 17 27 10 19 52 -10 53
-20 1 -23 -3 -23 -40z m40 20 c0 -16 -18 -31 -27 -22 -8 8 5 36 17 36 5 0 10
-6 10 -14z"/>
<path d="M1031 5456 c-16 -19 -3 -46 23 -45 16 1 17 2 4 6 -22 5 -24 23 -3 23
8 0 15 7 15 15 0 19 -24 20 -39 1z"/>
<path d="M1290 5426 c0 -22 4 -36 8 -30 4 6 15 13 25 17 27 10 19 52 -10 53
-20 1 -23 -3 -23 -40z m40 20 c0 -16 -18 -31 -27 -22 -8 8 5 36 17 36 5 0 10
-6 10 -14z"/>
<path d="M1361 5456 c-16 -19 -3 -46 23 -45 16 1 17 2 4 6 -22 5 -24 23 -3 23
8 0 15 7 15 15 0 19 -24 20 -39 1z"/>
<path d="M1840 5461 c0 -6 6 -8 14 -5 9 4 16 -3 19 -18 5 -22 5 -22 4 2 -2 24
-37 44 -37 21z"/>
<path d="M1894 5455 c-8 -19 4 -35 24 -34 15 1 15 2 0 6 -10 2 -18 11 -18 20
0 10 6 13 16 9 8 -3 12 -2 9 4 -9 15 -25 12 -31 -5z"/>
<path d="M1973 5435 c0 -22 2 -30 4 -17 2 12 2 30 0 40 -3 9 -5 -1 -4 -23z"/>
<path d="M2045 5461 l20 -8 -20 -5 c-18 -5 -17 -6 3 -7 29 -1 25 23 -4 26 -18
3 -18 2 1 -6z"/>
<path d="M2145 5461 c-3 -7 0 -8 9 -5 10 4 16 1 16 -9 0 -9 -7 -18 -15 -20
-11 -4 -10 -4 2 -3 10 1 18 9 18 20 0 22 -20 33 -30 17z"/>
<path d="M2210 5442 c-8 -15 -16 -30 -18 -34 -2 -5 1 -8 5 -8 9 0 35 61 30 67
-2 2 -10 -9 -17 -25z"/>
<path d="M1768 5453 c6 -2 18 -2 25 0 6 3 1 5 -13 5 -14 0 -19 -2 -12 -5z"/>
<path d="M2340 5442 c0 -7 -10 -13 -22 -13 -19 -1 -20 -2 -4 -6 20 -5 44 12
33 24 -4 3 -7 1 -7 -5z"/>
<path d="M2038 5423 c6 -2 18 -2 25 0 6 3 1 5 -13 5 -14 0 -19 -2 -12 -5z"/>
<path d="M1247 5073 c-4 -3 -7 -15 -7 -25 0 -10 -6 -18 -12 -18 -9 0 -10 -2
-2 -8 7 -4 13 -16 15 -26 2 -11 11 -21 19 -23 12 -4 12 -3 2 5 -8 5 -14 26
-14 47 0 21 6 41 14 46 7 5 8 9 2 9 -6 0 -14 -3 -17 -7z"/>
<path d="M1629 5072 c7 -5 13 -26 13 -47 0 -21 -6 -42 -13 -47 -11 -8 -11 -9
1 -5 8 2 16 13 18 25 2 12 9 22 15 22 9 0 9 2 1 8 -7 4 -13 16 -15 26 -2 11
-11 21 -19 23 -12 4 -12 3 -1 -5z"/>
<path d="M920 5046 c-5 -15 -15 -36 -20 -47 -6 -10 -8 -19 -6 -19 9 0 48 82
42 87 -3 3 -10 -6 -16 -21z"/>
<path d="M1098 5058 c-8 -23 7 -63 25 -64 13 -2 13 -1 2 3 -21 6 -19 43 3 44
13 0 14 2 2 6 -8 3 -18 10 -21 15 -3 5 -8 4 -11 -4z"/>
<path d="M1177 5028 c-23 -56 -16 -58 11 -3 12 25 18 45 13 45 -4 0 -15 -19
-24 -42z"/>
<path d="M1428 5058 c-8 -23 7 -63 25 -64 13 -2 13 -1 2 3 -21 6 -19 43 3 44
13 0 14 2 2 6 -8 3 -18 10 -21 15 -3 5 -8 4 -11 -4z"/>
<path d="M1498 5063 c6 -2 12 -17 12 -33 0 -16 -6 -31 -12 -33 -7 -3 1 -5 17
-5 17 0 24 2 18 5 -7 2 -13 17 -13 33 0 16 6 31 13 33 6 3 -1 5 -18 5 -16 0
-24 -2 -17 -5z"/>
<path d="M1590 5061 c0 -5 -9 -11 -21 -14 -29 -8 -23 -52 9 -53 19 -1 22 4 22
37 0 22 -2 39 -5 39 -3 0 -5 -4 -5 -9z m0 -35 c0 -16 -18 -31 -27 -22 -8 8 5
36 17 36 5 0 10 -6 10 -14z"/>
<path d="M2522 5035 c0 -23 3 -30 5 -17 3 15 10 22 19 18 8 -3 14 -1 14 4 0 6
-6 10 -14 10 -8 0 -17 6 -19 13 -3 6 -5 -6 -5 -28z"/>
<path d="M3022 5035 c0 -23 3 -30 5 -17 3 15 10 22 19 18 8 -3 14 -1 14 4 0 6
-6 10 -14 10 -8 0 -17 6 -19 13 -3 6 -5 -6 -5 -28z"/>
<path d="M1990 5032 c0 -18 4 -32 8 -32 9 0 8 47 -1 57 -4 3 -7 -8 -7 -25z"/>
<path d="M10425 5030 c16 -16 34 -30 40 -30 6 0 24 14 40 30 16 17 24 30 19
30 -6 0 -21 -11 -34 -25 l-24 -25 -26 25 c-37 35 -50 31 -15 -5z"/>
<path d="M960 5006 c0 -22 4 -36 8 -30 4 6 15 13 25 17 27 10 19 52 -10 53
-20 1 -23 -3 -23 -40z m40 20 c0 -16 -18 -31 -27 -22 -8 8 5 36 17 36 5 0 10
-6 10 -14z"/>
<path d="M1031 5036 c-16 -19 -3 -46 23 -45 16 1 17 2 4 6 -22 5 -24 23 -3 23
8 0 15 7 15 15 0 19 -24 20 -39 1z"/>
<path d="M1290 5006 c0 -22 4 -36 8 -30 4 6 15 13 25 17 27 10 19 52 -10 53
-20 1 -23 -3 -23 -40z m40 20 c0 -16 -18 -31 -27 -22 -8 8 5 36 17 36 5 0 10
-6 10 -14z"/>
<path d="M1361 5036 c-16 -19 -3 -46 23 -45 16 1 17 2 4 6 -22 5 -24 23 -3 23
8 0 15 7 15 15 0 19 -24 20 -39 1z"/>
<path d="M1836 5042 c-2 -4 4 -8 14 -8 10 0 16 4 14 8 -3 4 -9 8 -14 8 -5 0
-11 -4 -14 -8z"/>
<path d="M1884 5035 c-8 -19 4 -35 24 -34 15 1 15 2 0 6 -10 2 -18 11 -18 20
0 10 6 13 16 9 8 -3 12 -2 9 4 -9 15 -25 12 -31 -5z"/>
<path d="M1955 5041 l20 -10 -20 -1 -20 -1 20 -8 20 -8 -20 -5 c-18 -5 -17 -6
3 -7 19 -1 23 3 20 21 -2 14 -11 24 -23 25 l-20 3 20 -9z"/>
<path d="M2035 5041 l20 -8 -20 -5 c-18 -5 -17 -6 3 -7 29 -1 25 23 -4 26 -18
3 -18 2 1 -6z"/>
<path d="M2078 5043 c7 -3 16 -2 19 1 4 3 -2 6 -13 5 -11 0 -14 -3 -6 -6z"/>
<path d="M2165 5041 c14 -7 15 -10 5 -10 -13 -1 -13 -3 -1 -10 11 -7 10 -10
-5 -14 -16 -4 -15 -5 4 -6 19 -1 23 3 20 21 -2 14 -11 24 -23 25 l-20 3 20 -9z"/>
<path d="M2236 5042 c-2 -4 4 -8 14 -8 10 0 16 4 14 8 -3 4 -9 8 -14 8 -5 0
-11 -4 -14 -8z"/>
<path d="M2284 5035 c-8 -19 3 -35 24 -34 14 0 13 2 -3 8 -19 8 -18 9 5 13
l25 5 -25 2 c-23 2 -24 3 -5 11 18 8 18 9 2 9 -10 1 -20 -6 -23 -14z"/>
<path d="M2392 5025 c0 -16 2 -22 5 -12 2 9 2 23 0 30 -3 6 -5 -1 -5 -18z"/>
<path d="M2411 5023 c1 -23 2 -24 6 -6 2 12 12 24 21 26 12 3 10 5 -5 6 -19 1
-23 -4 -22 -26z"/>
<path d="M2595 5041 c19 -8 18 -9 -5 -13 -24 -5 -24 -5 3 -7 32 -1 33 22 1 26
-18 3 -18 2 1 -6z"/>
<path d="M2668 5043 c7 -3 16 -2 19 1 4 3 -2 6 -13 5 -11 0 -14 -3 -6 -6z"/>
<path d="M2734 5035 c-8 -19 4 -35 24 -34 15 1 15 2 0 6 -10 2 -18 11 -18 18
0 7 8 16 18 18 16 4 16 5 -1 6 -10 0 -20 -6 -23 -14z"/>
<path d="M2790 5039 c0 -5 5 -7 10 -4 6 3 10 8 10 11 0 2 -4 4 -10 4 -5 0 -10
-5 -10 -11z"/>
<path d="M2824 5035 c-8 -19 3 -35 24 -34 14 0 13 2 -3 8 l-20 8 20 5 20 6
-20 1 c-17 1 -18 3 -5 11 10 7 11 10 2 10 -7 0 -15 -7 -18 -15z"/>
<path d="M2920 5040 c0 -5 5 -10 10 -10 6 0 10 5 10 10 0 6 -4 10 -10 10 -5 0
-10 -4 -10 -10z"/>
<path d="M2972 5025 c0 -16 2 -22 5 -12 2 9 2 23 0 30 -3 6 -5 -1 -5 -18z"/>
<path d="M3130 5041 c0 -6 7 -8 15 -5 10 4 15 0 15 -11 0 -11 -5 -15 -15 -11
-8 3 -15 1 -15 -5 0 -6 8 -9 18 -7 9 2 17 12 17 23 0 11 -8 21 -17 23 -10 2
-18 -1 -18 -7z"/>
<path d="M3181 5023 c1 -22 2 -23 6 -8 3 11 10 23 17 27 7 5 5 8 -6 8 -13 0
-18 -7 -17 -27z"/>
<path d="M3225 5040 c-2 -4 7 -6 21 -4 35 3 41 12 9 12 -14 0 -27 -4 -30 -8z"/>
<path d="M3324 5035 c-8 -19 4 -35 24 -34 15 1 15 2 0 6 -10 2 -18 11 -18 20
0 10 6 13 16 9 8 -3 12 -2 9 4 -9 15 -25 12 -31 -5z"/>
<path d="M3395 5041 c14 -7 15 -10 5 -10 -13 -1 -13 -3 -1 -10 11 -7 10 -10
-5 -14 -16 -4 -15 -5 4 -6 19 -1 23 3 20 21 -2 14 -11 24 -23 25 l-20 3 20 -9z"/>
<path d="M3475 5041 c14 -7 15 -10 5 -10 -13 -1 -13 -3 -1 -10 11 -7 10 -10
-5 -14 -16 -4 -15 -5 4 -6 19 -1 23 3 20 21 -2 14 -11 24 -23 25 l-20 3 20 -9z"/>
<path d="M2900 5035 c0 -5 5 -17 10 -25 5 -8 10 -10 10 -5 0 6 -5 17 -10 25
-5 8 -10 11 -10 5z"/>
<path d="M2089 5022 c12 -8 11 -11 -3 -15 -15 -4 -15 -5 1 -3 19 1 21 19 1 24
-10 3 -10 1 1 -6z"/>
<path d="M2675 5021 l20 -8 -20 -6 -20 -6 20 2 c24 3 23 21 -2 24 -15 2 -14 1
2 -6z"/>
<path d="M1767 5008 c2 -5 10 -8 18 -8 8 0 16 3 18 8 3 4 -5 7 -18 7 -13 0
-21 -3 -18 -7z"/>
<path d="M1840 5006 c7 -7 13 -7 20 0 6 6 3 10 -10 10 -13 0 -16 -4 -10 -10z"/>
<path d="M2240 5006 c7 -7 13 -7 20 0 6 6 3 10 -10 10 -13 0 -16 -4 -10 -10z"/>
<path d="M2028 5003 c6 -2 18 -2 25 0 6 3 1 5 -13 5 -14 0 -19 -2 -12 -5z"/>
<path d="M2588 5003 c6 -2 18 -2 25 0 6 3 1 5 -13 5 -14 0 -19 -2 -12 -5z"/>
<path d="M2833 4763 c1462 -2 3852 -2 5310 0 1459 1 263 2 -2658 2 -2921 0
-4114 -1 -2652 -2z"/>
<path d="M165 2375 l0 -2380 2 2233 3 2232 5315 0 5315 0 3 -2232 2 -2233 0
2380 c0 1309 -1 2316 -2 2238 l-4 -143 -5314 0 -5314 0 -4 143 c-1 78 -2 -929
-2 -2238z"/>
<path d="M214 4707 c-3 -8 -4 -54 -2 -103 l3 -89 295 0 295 0 0 100 0 100
-293 3 c-238 2 -293 0 -298 -11z m154 -59 c9 -9 12 -9 12 0 0 8 17 12 45 12
45 0 45 0 45 -34 0 -28 4 -35 23 -39 12 -2 -8 -5 -45 -6 -47 -1 -68 3 -68 11
0 9 -3 9 -12 0 -7 -7 -22 -12 -35 -12 -20 0 -23 5 -23 40 0 35 3 40 23 40 13
0 28 -5 35 -12z m330 5 c-34 -5 -37 -22 -5 -24 l22 -2 -22 -4 c-32 -6 -29 -31
5 -36 22 -3 20 -4 -10 -6 -37 -1 -38 0 -38 34 0 24 -5 35 -15 35 -10 0 -15
-11 -15 -35 0 -19 -4 -35 -10 -35 -5 0 -10 16 -10 35 0 32 -2 35 -30 35 -35 0
-41 -19 -7 -21 l22 -2 -22 -4 c-13 -2 -23 -11 -23 -18 0 -7 10 -16 23 -18 16
-3 13 -5 -10 -6 -32 -1 -33 0 -33 39 l0 40 103 -1 c56 -1 90 -4 75 -6z"/>
<path d="M330 4620 c0 -16 5 -30 10 -30 6 0 10 14 10 30 0 17 -4 30 -10 30 -5
0 -10 -13 -10 -30z"/>
<path d="M400 4641 c0 -5 10 -12 23 -14 l22 -4 -22 -2 c-32 -2 -30 -31 2 -31
21 0 25 5 25 30 0 25 -4 30 -25 30 -14 0 -25 -4 -25 -9z"/>
<path d="M1247 4663 c-4 -3 -7 -15 -7 -25 0 -10 -6 -18 -12 -18 -9 0 -10 -2
-2 -8 7 -4 13 -16 15 -26 2 -11 11 -21 19 -23 12 -4 12 -3 2 5 -8 5 -14 26
-14 47 0 21 6 41 14 46 7 5 8 9 2 9 -6 0 -14 -3 -17 -7z"/>
<path d="M1629 4662 c7 -5 13 -26 13 -47 0 -21 -6 -42 -13 -47 -11 -8 -11 -9
1 -5 8 2 16 13 18 25 2 12 9 22 15 22 9 0 9 2 1 8 -7 4 -13 16 -15 26 -2 11
-11 21 -19 23 -12 4 -12 3 -1 -5z"/>
<path d="M920 4636 c-5 -15 -15 -36 -20 -47 -6 -10 -8 -19 -6 -19 9 0 48 82
42 87 -3 3 -10 -6 -16 -21z"/>
<path d="M1098 4648 c-8 -23 7 -63 25 -64 13 -2 13 -1 2 3 -21 6 -19 43 3 44
13 0 14 2 2 6 -8 3 -18 10 -21 15 -3 5 -8 4 -11 -4z"/>
<path d="M1177 4618 c-23 -56 -16 -58 11 -3 12 25 18 45 13 45 -4 0 -15 -19
-24 -42z"/>
<path d="M1428 4648 c-8 -23 7 -63 25 -64 13 -2 13 -1 2 3 -21 6 -19 43 3 44
13 0 14 2 2 6 -8 3 -18 10 -21 15 -3 5 -8 4 -11 -4z"/>
<path d="M1498 4653 c6 -2 12 -17 12 -33 0 -16 -6 -31 -12 -33 -7 -3 1 -5 17
-5 17 0 24 2 18 5 -7 2 -13 17 -13 33 0 16 6 31 13 33 6 3 -1 5 -18 5 -16 0
-24 -2 -17 -5z"/>
<path d="M1590 4651 c0 -5 -9 -11 -21 -14 -29 -8 -23 -52 9 -53 19 -1 22 4 22
37 0 22 -2 39 -5 39 -3 0 -5 -4 -5 -9z m0 -35 c0 -16 -18 -31 -27 -22 -8 8 5
36 17 36 5 0 10 -6 10 -14z"/>
<path d="M1775 4643 c11 -3 27 -10 35 -17 13 -10 13 -9 1 7 -7 9 -23 16 -35
16 -20 -1 -20 -2 -1 -6z"/>
<path d="M1883 4615 c0 -22 2 -30 4 -17 2 12 2 30 0 40 -3 9 -5 -1 -4 -23z"/>
<path d="M960 4596 c0 -22 4 -36 8 -30 4 6 15 13 25 17 27 10 19 52 -10 53
-20 1 -23 -3 -23 -40z m40 20 c0 -16 -18 -31 -27 -22 -8 8 5 36 17 36 5 0 10
-6 10 -14z"/>
<path d="M1031 4626 c-16 -19 -3 -46 23 -45 16 1 17 2 4 6 -22 5 -24 23 -3 23
8 0 15 7 15 15 0 19 -24 20 -39 1z"/>
<path d="M1290 4596 c0 -22 4 -36 8 -30 4 6 15 13 25 17 27 10 19 52 -10 53
-20 1 -23 -3 -23 -40z m40 20 c0 -16 -18 -31 -27 -22 -8 8 5 36 17 36 5 0 10
-6 10 -14z"/>
<path d="M1361 4626 c-16 -19 -3 -46 23 -45 16 1 17 2 4 6 -22 5 -24 23 -3 23
8 0 15 7 15 15 0 19 -24 20 -39 1z"/>
<path d="M10425 4610 c-35 -36 -22 -40 15 -5 l26 25 24 -25 c13 -14 28 -25 34
-25 5 0 -3 14 -19 30 -16 17 -34 30 -40 30 -6 0 -24 -13 -40 -30z"/>
<path d="M1845 4621 l20 -8 -20 -5 c-18 -5 -17 -6 3 -7 29 -1 25 23 -4 26 -18
3 -18 2 1 -6z"/>
<path d="M1904 4615 c-8 -19 3 -35 24 -34 14 0 13 2 -3 8 -19 8 -18 9 5 13
l25 5 -25 2 c-23 2 -24 3 -5 11 18 8 18 9 2 9 -10 1 -20 -6 -23 -14z"/>
<path d="M2005 4621 c19 -8 18 -9 -5 -13 -24 -5 -24 -5 3 -7 32 -1 33 22 1 26
-18 3 -18 2 1 -6z"/>
<path d="M2048 4623 c7 -3 16 -2 19 1 4 3 -2 6 -13 5 -11 0 -14 -3 -6 -6z"/>
<path d="M2135 4621 l20 -10 -20 -1 -20 -1 20 -8 20 -8 -20 -5 c-18 -5 -17 -6
3 -7 19 -1 23 3 20 21 -2 14 -11 24 -23 25 l-20 3 20 -9z"/>
<path d="M2205 4620 c-3 -6 1 -7 9 -4 11 4 16 0 16 -11 0 -12 -5 -15 -17 -10
-15 5 -16 4 -5 -6 16 -17 37 3 29 25 -7 18 -23 21 -32 6z"/>
<path d="M2254 4615 c-8 -19 3 -35 24 -34 14 0 13 2 -3 8 l-20 8 20 5 20 6
-20 1 c-17 1 -18 3 -5 11 10 7 11 10 2 10 -7 0 -15 -7 -18 -15z"/>
<path d="M1805 4601 c-6 -5 -19 -11 -30 -14 -19 -4 -19 -5 1 -6 12 0 27 6 34
14 14 16 10 20 -5 6z"/>
<path d="M2055 4601 l20 -8 -20 -6 -20 -6 20 2 c24 3 23 21 -2 24 -15 2 -14 1
2 -6z"/>
<path d="M1838 4583 c6 -2 18 -2 25 0 6 3 1 5 -13 5 -14 0 -19 -2 -12 -5z"/>
<path d="M1998 4583 c6 -2 18 -2 25 0 6 3 1 5 -13 5 -14 0 -19 -2 -12 -5z"/>
<path d="M331 4278 c1 -24 3 -35 6 -25 2 9 13 17 23 17 10 0 20 6 22 13 9 22
-3 37 -28 37 -22 0 -24 -4 -23 -42z m42 17 c1 -5 -6 -11 -15 -13 -11 -2 -18 3
-18 13 0 17 30 18 33 0z"/>
<path d="M10033 4313 c12 -3 17 -16 19 -41 l1 -37 4 35 c3 19 10 38 16 42 7 4
-4 7 -23 7 -19 -1 -27 -3 -17 -6z"/>
<path d="M10248 4309 c-6 -17 3 -69 11 -69 7 0 6 69 -2 76 -3 3 -7 0 -9 -7z"/>
<path d="M708 4305 c-6 -7 3 -65 11 -65 7 0 7 58 -1 65 -2 3 -7 3 -10 0z"/>
<path d="M10438 4305 c-6 -7 3 -65 11 -65 7 0 7 58 -1 65 -2 3 -7 3 -10 0z"/>
<path d="M409 4298 c0 -2 -3 -15 -5 -30 -4 -23 -1 -28 16 -28 16 0 20 6 20 30
0 20 -5 30 -15 30 -8 0 -15 -1 -16 -2z m21 -38 c0 -5 -4 -10 -10 -10 -5 0 -10
5 -10 10 0 6 5 10 10 10 6 0 10 -4 10 -10z"/>
<path d="M461 4268 c2 -28 2 -29 6 -8 3 14 10 28 17 32 7 5 5 8 -6 8 -14 0
-18 -8 -17 -32z"/>
<path d="M509 4298 c0 -2 -3 -15 -5 -30 -4 -23 -1 -28 16 -28 16 0 20 6 20 30
0 20 -5 30 -15 30 -8 0 -15 -1 -16 -2z m21 -38 c0 -5 -4 -10 -10 -10 -5 0 -10
5 -10 10 0 6 5 10 10 10 6 0 10 -4 10 -10z"/>
<path d="M562 4270 c0 -19 2 -27 5 -17 2 9 2 25 0 35 -3 9 -5 1 -5 -18z"/>
<path d="M588 4270 c2 -16 6 -30 8 -30 2 0 4 14 4 30 0 17 -4 30 -8 30 -5 0
-7 -13 -4 -30z"/>
<path d="M616 4289 c7 -8 14 -23 17 -34 4 -13 5 -9 4 9 -1 16 -9 32 -17 34
-12 4 -13 2 -4 -9z"/>
<path d="M657 4294 c-11 -11 -8 -42 4 -50 6 -3 16 -1 22 5 9 9 8 11 -5 6 -11
-4 -18 -2 -18 4 0 6 7 11 16 11 9 0 14 5 12 12 -5 14 -22 21 -31 12z"/>
<path d="M744 4286 c-13 -33 23 -65 41 -36 3 5 0 7 -8 4 -8 -3 -18 -1 -22 5
-3 7 3 11 15 11 13 0 20 5 18 13 -7 18 -37 21 -44 3z m33 -2 c-3 -3 -12 -4
-19 -1 -8 3 -5 6 6 6 11 1 17 -2 13 -5z"/>
<path d="M801 4268 c1 -22 3 -26 6 -13 3 11 10 26 15 33 8 9 6 12 -6 12 -12 0
-16 -9 -15 -32z"/>
<path d="M845 4289 c-8 -12 -8 -11 20 -28 19 -12 19 -12 -3 -8 -12 3 -20 1
-16 -4 7 -11 31 -12 38 -1 3 5 2 18 -1 30 -6 23 -27 29 -38 11z"/>
<path d="M10091 4268 c2 -31 2 -31 6 -5 2 15 10 27 18 27 14 0 29 -45 20 -60
-4 -6 -2 -10 3 -10 6 0 15 14 21 31 14 40 13 63 -1 29 l-10 -25 -9 23 c-5 13
-17 22 -29 22 -16 0 -20 -6 -19 -32z"/>
<path d="M10222 4270 c0 -19 2 -27 5 -17 2 9 2 25 0 35 -3 9 -5 1 -5 -18z"/>
<path d="M10314 4286 c-9 -24 4 -48 23 -44 12 2 18 12 18 28 0 29 -32 41 -41
16z m36 -16 c0 -11 -7 -20 -15 -20 -8 0 -15 9 -15 20 0 11 7 20 15 20 8 0 15
-9 15 -20z"/>
<path d="M10373 4276 c1 -16 9 -32 17 -34 12 -4 13 -2 4 9 -7 8 -14 23 -17 34
-4 13 -5 9 -4 -9z"/>
<path d="M10412 4270 c0 -19 2 -27 5 -17 2 9 2 25 0 35 -3 9 -5 1 -5 -18z"/>
<path d="M331 3805 c1 -40 1 -40 10 -10 5 18 5 33 -1 39 -7 7 -10 -4 -9 -29z"/>
<path d="M372 3822 c-1 -13 -6 -20 -12 -17 -12 8 -13 -5 0 -25 13 -22 22 -6
17 32 -2 20 -4 24 -5 10z"/>
<path d="M1160 3805 c0 -32 3 -36 23 -33 17 2 22 10 22 33 0 23 -5 31 -22 33
-20 3 -23 -1 -23 -33z m40 0 c0 -16 -6 -25 -15 -25 -9 0 -15 9 -15 25 0 16 6
25 15 25 9 0 15 -9 15 -25z"/>
<path d="M1490 3807 c0 -14 4 -28 8 -31 9 -5 8 41 -1 51 -4 3 -7 -5 -7 -20z"/>
<path d="M408 3812 c11 -7 11 -10 -2 -15 -23 -9 -20 -27 5 -27 15 0 20 5 17
22 -2 12 -10 23 -18 25 -12 4 -12 3 -2 -5z"/>
<path d="M441 3793 c2 -23 2 -24 6 -5 2 12 8 22 13 22 5 0 11 -10 13 -22 l4
-23 2 23 c1 27 18 29 24 2 4 -17 4 -16 3 2 -1 18 -8 24 -33 26 -30 3 -33 1
-32 -25z"/>
<path d="M524 3806 c-8 -20 3 -36 24 -35 14 0 13 2 -3 9 -18 8 -18 9 -2 9 10
1 17 6 15 13 -7 19 -27 21 -34 4z"/>
<path d="M1239 3811 c11 -7 10 -10 -5 -14 -16 -4 -16 -5 4 -6 13 -1 22 5 22
14 0 8 -8 15 -17 15 -15 0 -15 -2 -4 -9z"/>
<path d="M1280 3805 c0 -8 6 -15 13 -15 8 0 7 -4 -3 -10 -13 -8 -12 -10 3 -10
9 0 17 7 17 15 0 8 -6 15 -12 15 -9 0 -8 4 2 10 13 8 12 10 -2 10 -10 0 -18
-7 -18 -15z"/>
<path d="M1328 3808 c-3 -7 -3 -19 -1 -25 5 -15 33 -17 33 -3 0 6 -4 9 -9 8
-5 -2 -8 2 -7 7 0 6 4 9 9 8 4 -2 7 2 7 7 0 14 -27 12 -32 -2z"/>
<path d="M1380 3795 c0 -14 2 -25 4 -25 2 0 6 11 8 25 3 14 1 25 -3 25 -5 0
-9 -11 -9 -25z"/>
<path d="M1412 3795 c0 -16 2 -22 5 -12 2 9 2 23 0 30 -3 6 -5 -1 -5 -18z"/>
<path d="M1440 3785 l0 -36 21 20 c23 21 20 51 -6 51 -11 0 -15 -10 -15 -35z
m30 10 c0 -8 -4 -15 -10 -15 -5 0 -10 7 -10 15 0 8 5 15 10 15 6 0 10 -7 10
-15z"/>
<path d="M1522 3795 c0 -16 2 -22 5 -12 2 9 2 23 0 30 -3 6 -5 -1 -5 -18z"/>
<path d="M1547 3807 c-3 -8 -2 -20 3 -27 11 -18 42 -4 38 17 -4 22 -34 29 -41
10z m33 -12 c0 -8 -4 -15 -9 -15 -13 0 -22 16 -14 24 11 11 23 6 23 -9z"/>
<path d="M1601 3793 c2 -24 2 -25 6 -5 2 12 8 22 13 22 5 0 11 -10 13 -22 4
-20 4 -19 6 5 1 21 -4 27 -19 27 -15 0 -20 -6 -19 -27z"/>
<path d="M1238 3773 c7 -3 16 -2 19 1 4 3 -2 6 -13 5 -11 0 -14 -3 -6 -6z"/>
<path d="M563 3505 c0 -27 2 -38 4 -22 2 15 2 37 0 50 -2 12 -4 0 -4 -28z"/>
<path d="M336 3521 c-3 -5 3 -7 14 -4 11 3 20 1 20 -5 0 -5 -9 -12 -20 -15
-30 -8 -26 -37 5 -35 22 2 26 7 23 33 -3 30 -30 47 -42 26z m29 -41 c-3 -5
-10 -10 -16 -10 -5 0 -9 5 -9 10 0 6 7 10 16 10 8 0 12 -4 9 -10z"/>
<path d="M402 3485 c-1 -27 2 -45 6 -39 4 6 15 13 25 17 21 8 20 59 -1 63 -7
1 -8 0 -2 -3 16 -7 12 -53 -4 -53 -9 0 -16 13 -19 33 -3 23 -4 18 -5 -18z"/>
<path d="M463 3495 c0 -22 2 -30 4 -17 2 12 2 30 0 40 -3 9 -5 -1 -4 -23z"/>
<path d="M585 3520 c-3 -6 1 -7 9 -4 18 7 21 14 7 14 -6 0 -13 -4 -16 -10z"/>
<path d="M627 3524 c-4 -4 -7 -18 -7 -31 0 -26 26 -41 42 -25 8 8 5 9 -11 5
-12 -3 -21 -1 -21 6 0 6 9 11 21 11 14 0 19 5 17 17 -3 19 -29 29 -41 17z m28
-14 c3 -5 -1 -10 -9 -10 -9 0 -16 5 -16 10 0 6 4 10 9 10 6 0 13 -4 16 -10z"/>
<path d="M690 3495 c0 -5 5 -17 10 -25 5 -8 10 -10 10 -5 0 6 -5 17 -10 25 -5
8 -10 11 -10 5z"/>
<path d="M498 3443 c12 -2 30 -2 40 0 9 3 -1 5 -23 4 -22 0 -30 -2 -17 -4z"/>
<path d="M1256 3431 c-4 -5 3 -7 14 -4 23 6 26 13 6 13 -8 0 -17 -4 -20 -9z"/>
<path d="M1326 3432 c-2 -4 4 -8 14 -8 10 0 16 4 14 8 -3 4 -9 8 -14 8 -5 0
-11 -4 -14 -8z"/>
<path d="M1383 3405 c0 -22 2 -30 4 -17 2 12 2 30 0 40 -3 9 -5 -1 -4 -23z"/>
<path d="M1494 3418 l-19 -23 23 19 c21 18 27 26 19 26 -2 0 -12 -10 -23 -22z"/>
<path d="M1550 3436 c0 -2 7 -7 16 -10 8 -3 12 -2 9 4 -6 10 -25 14 -25 6z"/>
<path d="M1268 3403 c7 -3 16 -2 19 1 4 3 -2 6 -13 5 -11 0 -14 -3 -6 -6z"/>
<path d="M1548 3403 c6 -2 18 -2 25 0 6 3 1 5 -13 5 -14 0 -19 -2 -12 -5z"/>
<path d="M1265 3380 c-16 -7 -17 -9 -3 -9 9 -1 20 4 23 9 7 11 7 11 -20 0z"/>
<path d="M1330 3376 c7 -7 13 -7 20 0 6 6 3 10 -10 10 -13 0 -16 -4 -10 -10z"/>
<path d="M1560 3380 c-9 -6 -10 -10 -3 -10 6 0 15 5 18 10 8 12 4 12 -15 0z"/>
<path d="M330 3351 c0 -6 6 -11 13 -11 8 0 7 -4 -3 -10 -13 -8 -12 -10 3 -10
21 0 22 13 2 30 -10 9 -15 9 -15 1z"/>
<path d="M432 3340 c0 -14 2 -19 5 -12 2 6 2 18 0 25 -3 6 -5 1 -5 -13z"/>
<path d="M487 3340 c-3 -12 0 -20 8 -20 8 0 11 8 8 20 -3 11 -7 20 -8 20 -1 0
-5 -9 -8 -20z"/>
<path d="M552 3340 c0 -14 2 -19 5 -12 2 6 2 18 0 25 -3 6 -5 1 -5 -13z"/>
<path d="M1413 3353 c9 -2 25 -2 35 0 9 3 1 5 -18 5 -19 0 -27 -2 -17 -5z"/>
<path d="M575 3321 c-6 -11 13 -26 22 -17 4 3 0 6 -8 7 -8 0 -6 4 6 9 16 7 17
9 3 9 -9 1 -19 -3 -23 -8z"/>
<path d="M513 2945 c0 -27 2 -38 4 -22 2 15 2 37 0 50 -2 12 -4 0 -4 -28z"/>
<path d="M580 2981 c0 -5 -9 -11 -21 -14 -16 -4 -20 -12 -17 -34 2 -22 9 -29
31 -31 26 -3 27 -2 27 42 0 25 -4 46 -10 46 -5 0 -10 -4 -10 -9z m0 -46 c0
-14 -4 -25 -9 -25 -12 0 -23 29 -15 41 10 18 24 9 24 -16z"/>
<path d="M730 2979 c0 -5 5 -7 10 -4 6 3 10 8 10 11 0 2 -4 4 -10 4 -5 0 -10
-5 -10 -11z"/>
<path d="M468 2975 c-8 -8 6 -68 17 -72 6 -2 10 14 9 34 -1 34 -13 51 -26 38z"/>
<path d="M650 2976 c0 -2 6 -9 13 -15 10 -8 14 -7 14 4 0 8 -6 15 -14 15 -7 0
-13 -2 -13 -4z"/>
<path d="M331 2920 c1 -25 3 -38 6 -29 2 11 11 15 22 12 21 -5 35 20 26 48 -4
12 -15 18 -31 17 -22 -2 -24 -7 -23 -48z m39 15 c0 -26 -14 -33 -25 -15 -9 14
1 40 15 40 5 0 10 -11 10 -25z"/>
<path d="M407 2964 c-4 -4 -7 -18 -7 -31 0 -27 26 -41 43 -24 9 9 8 11 -4 6
-10 -4 -20 -2 -24 4 -3 7 3 11 15 11 15 0 20 5 18 17 -3 19 -29 29 -41 17z
m33 -14 c0 -5 -7 -10 -16 -10 -8 0 -12 5 -9 10 3 6 10 10 16 10 5 0 9 -4 9
-10z"/>
<path d="M768 2963 c7 -3 16 -2 19 1 4 3 -2 6 -13 5 -11 0 -14 -3 -6 -6z"/>
<path d="M860 2950 c-13 -8 -12 -10 3 -10 9 0 17 5 17 10 0 12 -1 12 -20 0z"/>
<path d="M1171 2823 c1 -26 4 -38 6 -26 3 13 13 23 26 25 34 5 29 42 -5 46
-27 3 -28 2 -27 -45z m49 22 c0 -8 -9 -15 -20 -15 -11 0 -20 7 -20 15 0 8 9
15 20 15 11 0 20 -7 20 -15z"/>
<path d="M1308 2860 c-5 -17 3 -80 11 -80 7 0 6 79 -2 86 -3 3 -7 0 -9 -6z"/>
<path d="M1442 2863 c-1 -7 -8 -13 -16 -13 -18 0 -29 -31 -20 -54 8 -20 33
-21 40 -2 3 8 4 29 1 48 -2 18 -5 27 -5 21z m-2 -48 c0 -26 -14 -33 -25 -15
-9 14 1 40 15 40 5 0 10 -11 10 -25z"/>
<path d="M1658 2852 c-16 -17 -16 -18 3 -18 12 0 19 7 19 18 0 22 0 21 -22 0z"/>
<path d="M1773 2825 c0 -27 2 -38 4 -22 2 15 2 37 0 50 -2 12 -4 0 -4 -28z"/>
<path d="M1246 2832 c-12 -37 21 -72 39 -42 3 5 0 7 -8 4 -8 -3 -18 -1 -22 5
-3 7 3 11 15 11 15 0 20 5 18 17 -5 25 -35 28 -42 5z m34 -2 c0 -5 -7 -10 -16
-10 -8 0 -12 5 -9 10 3 6 10 10 16 10 5 0 9 -4 9 -10z"/>
<path d="M1546 2842 c-3 -6 2 -9 12 -8 11 1 17 -6 17 -19 0 -13 -6 -19 -19
-18 -13 1 -15 -2 -7 -10 18 -18 49 18 35 40 -13 21 -30 27 -38 15z"/>
<path d="M1706 2832 c-12 -37 21 -72 39 -42 3 5 0 7 -8 4 -8 -3 -18 -1 -22 5
-3 7 3 11 15 11 15 0 20 5 18 17 -5 25 -35 28 -42 5z m34 -2 c0 -5 -7 -10 -16
-10 -8 0 -12 5 -9 10 3 6 10 10 16 10 5 0 9 -4 9 -10z"/>
<path d="M1799 2834 c-9 -11 -10 -20 -2 -32 12 -20 43 -28 43 -12 0 6 -4 8
-10 5 -5 -3 -16 -3 -22 2 -9 5 -3 10 17 14 l30 7 -28 1 c-17 1 -26 5 -22 12 4
6 14 8 22 5 8 -3 11 -1 8 4 -9 14 -21 12 -36 -6z"/>
<path d="M1899 2834 c-9 -11 -10 -20 -2 -32 12 -20 43 -28 43 -12 0 6 -4 8
-10 5 -5 -3 -16 -3 -22 2 -9 5 -3 10 17 14 l30 7 -28 1 c-17 1 -26 5 -22 12 4
6 14 8 22 5 8 -3 11 -1 8 4 -9 14 -21 12 -36 -6z"/>
<path d="M985 2800 c-3 -5 -1 -10 4 -10 6 0 11 5 11 10 0 6 -2 10 -4 10 -3 0
-8 -4 -11 -10z"/>
<path d="M720 2791 c0 -5 8 -12 18 -16 16 -7 15 -8 -3 -16 -19 -8 -19 -9 -1
-6 27 3 30 20 6 35 -11 7 -20 8 -20 3z"/>
<path d="M880 2781 c0 -11 4 -22 9 -25 4 -3 6 6 3 19 -5 30 -12 33 -12 6z"/>
<path d="M1650 2786 c7 -7 13 -7 20 0 6 6 3 10 -10 10 -13 0 -16 -4 -10 -10z"/>
<path d="M337 2770 c-3 -12 0 -20 8 -20 8 0 11 8 8 20 -3 11 -7 20 -8 20 -1 0
-5 -9 -8 -20z"/>
<path d="M382 2770 c0 -14 2 -19 5 -12 2 6 2 18 0 25 -3 6 -5 1 -5 -13z"/>
<path d="M480 2778 c0 -4 7 -8 15 -8 8 0 15 4 15 8 0 5 -7 9 -15 9 -8 0 -15
-4 -15 -9z"/>
<path d="M580 2778 c0 -4 7 -8 15 -8 8 0 15 4 15 8 0 5 -7 9 -15 9 -8 0 -15
-4 -15 -9z"/>
<path d="M632 2770 c0 -14 2 -19 5 -12 2 6 2 18 0 25 -3 6 -5 1 -5 -13z"/>
<path d="M852 2770 c0 -14 2 -19 5 -12 2 6 2 18 0 25 -3 6 -5 1 -5 -13z"/>
<path d="M924 2770 c2 -18 28 -20 32 -2 1 7 0 8 -3 2 -7 -14 -21 -13 -26 3 -2
7 -3 6 -3 -3z"/>
<path d="M1041 2774 c0 -11 3 -14 6 -6 3 7 2 16 -1 19 -3 4 -6 -2 -5 -13z"/>
<path d="M970 2769 c0 -5 10 -9 22 -9 12 0 18 3 14 7 -10 11 -36 12 -36 2z"/>
<path d="M488 2753 c7 -3 16 -2 19 1 4 3 -2 6 -13 5 -11 0 -14 -3 -6 -6z"/>
<path d="M525 2751 c-6 -11 13 -26 22 -17 4 3 0 6 -8 7 -8 0 -6 4 6 9 16 7 17
9 3 9 -9 1 -19 -3 -23 -8z"/>
<path d="M588 2753 c7 -3 16 -2 19 1 4 3 -2 6 -13 5 -11 0 -14 -3 -6 -6z"/>
<path d="M788 2753 c7 -3 16 -2 19 1 4 3 -2 6 -13 5 -11 0 -14 -3 -6 -6z"/>
<path d="M1380 2472 c0 -22 3 -43 8 -45 8 -6 7 71 -2 80 -3 4 -6 -12 -6 -35z"/>
<path d="M1330 2486 c0 -2 7 -7 16 -10 8 -3 12 -2 9 4 -6 10 -25 14 -25 6z"/>
<path d="M1455 2480 c-3 -6 1 -7 9 -4 18 7 21 14 7 14 -6 0 -13 -4 -16 -10z"/>
<path d="M1291 2454 c0 -11 3 -14 6 -6 3 7 2 16 -1 19 -3 4 -6 -2 -5 -13z"/>
<path d="M1328 2453 c6 -2 18 -2 25 0 6 3 1 5 -13 5 -14 0 -19 -2 -12 -5z"/>
<path d="M1340 2430 c-9 -6 -10 -10 -3 -10 6 0 15 5 18 10 8 12 4 12 -15 0z"/>
<path d="M1457 2429 c7 -7 15 -10 18 -7 3 3 -2 9 -12 12 -14 6 -15 5 -6 -5z"/>
<path d="M9368 1743 c232 -2 612 -2 845 0 232 1 42 2 -423 2 -465 0 -655 -1
-422 -2z"/>
<path d="M8934 1633 l1 -98 855 0 855 0 1 95 0 95 -3 -92 -4 -93 -849 0 -849
0 -4 95 -3 95 0 -97z"/>
<path d="M331 1638 c1 -24 3 -35 6 -25 6 22 22 22 38 0 10 -14 12 -10 11 23
-1 35 -4 39 -28 42 -27 3 -28 2 -27 -40z m49 17 c0 -8 -9 -15 -20 -15 -11 0
-20 7 -20 15 0 8 9 15 20 15 11 0 20 -7 20 -15z"/>
<path d="M7871 1643 c1 -21 3 -30 6 -20 6 21 12 22 27 2 9 -12 11 -9 11 17 0
27 -4 34 -22 36 -21 3 -23 -1 -22 -35z m39 17 c0 -5 -7 -10 -15 -10 -8 0 -15
5 -15 10 0 6 7 10 15 10 8 0 15 -4 15 -10z"/>
<path d="M9210 1640 c0 -22 5 -40 10 -40 6 0 10 18 10 40 0 22 -4 40 -10 40
-5 0 -10 -18 -10 -40z"/>
<path d="M8480 1651 c0 -25 6 -27 13 -6 4 8 2 17 -3 20 -6 4 -10 -3 -10 -14z"/>
<path d="M8618 1665 c-7 -7 3 -55 11 -55 8 0 7 47 -1 55 -2 3 -7 3 -10 0z"/>
<path d="M8670 1651 c0 -25 6 -27 13 -6 4 8 2 17 -3 20 -6 4 -10 -3 -10 -14z"/>
<path d="M9388 1665 c-6 -7 3 -65 11 -65 7 0 7 58 -1 65 -2 3 -7 3 -10 0z"/>
<path d="M404 1646 c-13 -33 23 -65 41 -36 3 5 0 7 -8 4 -8 -3 -18 -1 -22 5
-3 7 3 11 15 11 13 0 20 5 18 13 -7 18 -37 21 -44 3z m33 -2 c-3 -3 -12 -4
-19 -1 -8 3 -5 6 6 6 11 1 17 -2 13 -5z"/>
<path d="M465 1651 c-3 -5 5 -17 17 -26 l23 -17 -23 5 c-12 3 -20 1 -16 -4 7
-11 31 -12 38 -1 3 5 2 18 -1 30 -5 22 -27 30 -38 13z"/>
<path d="M520 1618 c0 -24 4 -38 8 -32 4 6 15 13 25 17 26 10 18 51 -10 55
-21 3 -23 -1 -23 -40z m40 12 c0 -11 -4 -20 -9 -20 -14 0 -23 18 -16 30 10 17
25 11 25 -10z"/>
<path d="M594 1646 c-9 -24 4 -48 23 -44 12 2 18 12 18 28 0 29 -32 41 -41 16z
m31 -16 c0 -7 -6 -15 -12 -17 -8 -3 -13 4 -13 17 0 13 5 20 13 18 6 -3 12 -11
12 -18z"/>
<path d="M652 1630 c0 -19 2 -27 5 -17 2 9 2 25 0 35 -3 9 -5 1 -5 -18z"/>
<path d="M676 1653 c7 -4 14 -19 17 -33 4 -22 5 -21 4 4 -1 17 -9 31 -17 33
-10 3 -11 2 -4 -4z"/>
<path d="M715 1651 c-3 -5 5 -17 17 -26 l23 -17 -23 5 c-12 3 -20 1 -16 -4 7
-11 31 -12 38 -1 3 5 2 18 -1 30 -5 22 -27 30 -38 13z"/>
<path d="M774 1646 c-3 -9 -4 -23 0 -31 6 -16 36 -21 36 -5 0 5 -7 7 -15 4 -8
-4 -15 -1 -15 5 0 6 9 11 21 11 12 0 19 5 17 13 -7 18 -37 21 -44 3z m33 -2
c-3 -3 -12 -4 -19 -1 -8 3 -5 6 6 6 11 1 17 -2 13 -5z"/>
<path d="M835 1649 c-8 -12 -8 -11 20 -28 19 -12 19 -12 -3 -8 -12 3 -20 1
-16 -4 7 -11 31 -12 38 -1 3 5 2 18 -1 30 -6 23 -27 29 -38 11z"/>
<path d="M7934 1646 c-7 -18 3 -36 19 -36 7 0 6 4 -3 10 -13 8 -12 10 3 10 10
0 17 5 15 12 -7 19 -27 21 -34 4z"/>
<path d="M7985 1650 c-3 -6 1 -13 10 -16 14 -6 14 -9 3 -16 -10 -8 -10 -9 1
-6 22 6 25 28 4 28 -15 0 -16 2 -3 10 9 6 10 10 3 10 -6 0 -15 -5 -18 -10z"/>
<path d="M8031 1623 c0 -21 3 -32 6 -25 2 6 11 12 19 12 8 0 14 4 14 10 0 5
-7 7 -15 4 -10 -4 -15 0 -15 11 0 11 5 15 15 11 8 -3 15 -1 15 4 0 6 -9 10
-20 10 -17 0 -20 -6 -19 -37z"/>
<path d="M8095 1651 c-3 -7 0 -8 9 -5 11 4 16 0 16 -11 0 -11 -5 -15 -15 -11
-8 3 -15 1 -15 -5 0 -6 8 -9 18 -7 9 2 17 12 17 22 0 22 -20 33 -30 17z"/>
<path d="M8141 1633 c2 -24 2 -25 6 -5 2 12 8 22 13 22 5 0 11 -10 13 -22 4
-20 4 -19 6 5 1 21 -4 27 -19 27 -15 0 -20 -6 -19 -27z"/>
<path d="M8200 1645 c0 -8 8 -15 18 -15 13 0 14 2 3 9 -11 7 -11 9 0 14 10 4
9 6 -3 6 -10 1 -18 -6 -18 -14z"/>
<path d="M8258 1653 c7 -3 16 -2 19 1 4 3 -2 6 -13 5 -11 0 -14 -3 -6 -6z"/>
<path d="M8323 1644 c-8 -22 13 -42 30 -25 10 10 9 11 -5 6 -13 -5 -18 -2 -18
10 0 11 5 15 16 11 8 -3 12 -2 9 4 -9 15 -25 12 -32 -6z"/>
<path d="M8374 1645 c-3 -8 -3 -19 1 -25 8 -13 35 -13 35 0 0 5 -7 7 -15 4
-10 -4 -15 0 -15 11 0 11 5 15 15 11 8 -3 15 -1 15 4 0 16 -30 12 -36 -5z"/>
<path d="M8431 1633 c1 -23 2 -24 6 -5 2 12 8 22 13 22 5 0 11 -10 13 -22 5
-20 5 -20 4 2 -1 15 -9 26 -19 28 -14 3 -18 -3 -17 -25z"/>
<path d="M8514 1646 c-7 -18 3 -36 19 -36 7 0 6 4 -3 10 -13 8 -12 10 3 10 10
0 17 5 15 12 -7 19 -27 21 -34 4z"/>
<path d="M8561 1633 c2 -24 2 -25 6 -5 2 12 8 22 13 22 5 0 11 -10 13 -22 4
-20 4 -19 6 5 1 21 -4 27 -19 27 -15 0 -20 -6 -19 -27z"/>
<path d="M8704 1624 c1 -38 11 -45 19 -13 3 12 0 27 -7 34 -10 10 -12 6 -12
-21z"/>
<path d="M8751 1623 c0 -21 3 -32 6 -25 2 6 11 12 19 12 8 0 14 4 14 10 0 5
-7 7 -15 4 -10 -4 -15 0 -15 11 0 11 5 15 15 11 8 -3 15 -1 15 4 0 6 -9 10
-20 10 -17 0 -20 -6 -19 -37z"/>
<path d="M8818 1653 c7 -3 16 -2 19 1 4 3 -2 6 -13 5 -11 0 -14 -3 -6 -6z"/>
<path d="M9026 1651 c-3 -5 4 -7 16 -5 l23 5 -23 -12 c-27 -15 -24 -33 7 -37
19 -3 22 0 19 25 -3 28 -30 44 -42 24z m29 -31 c-3 -5 -11 -10 -16 -10 -6 0
-7 5 -4 10 3 6 11 10 16 10 6 0 7 -4 4 -10z"/>
<path d="M9080 1620 c0 -22 5 -40 10 -40 6 0 10 5 10 10 0 6 6 10 14 10 8 0
16 7 20 15 9 25 -4 45 -30 45 -21 0 -24 -4 -24 -40z m40 10 c0 -11 -4 -20 -10
-20 -5 0 -10 9 -10 20 0 11 5 20 10 20 6 0 10 -9 10 -20z"/>
<path d="M9153 1620 c0 -25 2 -35 4 -22 2 12 2 32 0 45 -2 12 -4 2 -4 -23z"/>
<path d="M9180 1653 c5 -2 10 -13 10 -23 0 -10 -5 -21 -10 -23 -6 -3 -5 -4 2
-3 7 2 13 13 13 26 0 13 -6 24 -13 26 -7 1 -8 0 -2 -3z"/>
<path d="M9242 1630 c0 -19 2 -27 5 -17 2 9 2 25 0 35 -3 9 -5 1 -5 -18z"/>
<path d="M9274 1645 c-12 -29 3 -42 50 -42 44 -1 46 0 46 28 0 23 -4 29 -21
29 -15 0 -19 -5 -15 -15 4 -11 -3 -19 -20 -25 -34 -13 -34 -13 -34 11 0 15 5
19 15 15 8 -3 15 -1 15 4 0 16 -30 11 -36 -5z m86 -25 c0 -5 -4 -10 -10 -10
-5 0 -10 5 -10 10 0 6 5 10 10 10 6 0 10 -4 10 -10z"/>
<path d="M9420 1630 c0 -16 5 -30 10 -30 6 0 10 14 10 30 0 17 -4 30 -10 30
-5 0 -10 -13 -10 -30z"/>
<path d="M9454 1646 c-9 -24 4 -48 23 -44 12 2 18 12 18 28 0 29 -32 41 -41
16z m36 -16 c0 -11 -7 -20 -15 -20 -8 0 -15 9 -15 20 0 11 7 20 15 20 8 0 15
-9 15 -20z"/>
<path d="M9521 1628 c2 -31 2 -31 6 -5 2 15 8 27 13 27 5 0 11 -12 13 -27 4
-26 4 -26 6 5 1 26 -3 32 -19 32 -16 0 -20 -6 -19 -32z"/>
<path d="M9608 1620 c-2 -22 0 -40 4 -40 5 0 8 18 8 40 0 22 -2 40 -4 40 -2 0
-6 -18 -8 -40z"/>
<path d="M9640 1646 c0 -8 8 -20 18 -26 16 -11 16 -11 0 -6 -10 3 -18 1 -18
-4 0 -6 9 -10 20 -10 17 0 20 5 17 28 -4 29 -37 45 -37 18z"/>
<path d="M9696 1645 c-8 -22 4 -45 24 -45 20 0 32 23 24 45 -4 8 -14 15 -24
15 -10 0 -20 -7 -24 -15z m40 -6 c10 -17 -13 -36 -27 -22 -12 12 -4 33 11 33
5 0 12 -5 16 -11z"/>
<path d="M9761 1626 c1 -28 2 -29 8 -7 9 34 29 37 34 6 4 -24 4 -24 3 2 -1 22
-6 28 -23 29 -19 1 -23 -4 -22 -30z"/>
<path d="M9581 1634 c0 -11 3 -14 6 -6 3 7 2 16 -1 19 -3 4 -6 -2 -5 -13z"/>
<path d="M10460 1635 c7 -8 18 -15 25 -15 7 0 18 7 25 15 14 17 0 21 -17 4 -8
-8 -13 -8 -17 0 -4 6 -12 11 -18 11 -7 0 -6 -6 2 -15z"/>
<path d="M8258 1633 c7 -3 16 -2 19 1 4 3 -2 6 -13 5 -11 0 -14 -3 -6 -6z"/>
<path d="M8818 1633 c7 -3 16 -2 19 1 4 3 -2 6 -13 5 -11 0 -14 -3 -6 -6z"/>
<path d="M8208 1613 c7 -3 16 -2 19 1 4 3 -2 6 -13 5 -11 0 -14 -3 -6 -6z"/>
<path d="M8258 1613 c7 -3 16 -2 19 1 4 3 -2 6 -13 5 -11 0 -14 -3 -6 -6z"/>
<path d="M8818 1613 c7 -3 16 -2 19 1 4 3 -2 6 -13 5 -11 0 -14 -3 -6 -6z"/>
<path d="M334 1176 c-16 -41 20 -86 47 -59 6 6 1 9 -13 9 -18 -1 -23 4 -23 24
0 19 5 25 22 24 12 0 20 3 17 8 -8 13 -44 9 -50 -6z"/>
<path d="M510 1176 c0 -8 -8 -13 -17 -12 -13 1 -18 -6 -18 -24 0 -19 5 -25 23
-26 19 -1 22 4 22 37 0 22 -2 39 -5 39 -3 0 -5 -6 -5 -14z m-5 -36 c0 -7 -6
-15 -12 -17 -8 -3 -13 4 -13 17 0 13 5 20 13 18 6 -3 12 -11 12 -18z"/>
<path d="M960 1155 c0 -32 3 -36 23 -33 17 2 22 10 22 33 0 23 -5 31 -22 33
-20 3 -23 -1 -23 -33z m40 0 c0 -16 -6 -25 -15 -25 -9 0 -15 9 -15 25 0 16 6
25 15 25 9 0 15 -9 15 -25z"/>
<path d="M1288 1175 c-7 -7 3 -55 11 -55 8 0 7 47 -1 55 -2 3 -7 3 -10 0z"/>
<path d="M406 1155 c-8 -22 4 -45 24 -45 10 0 20 7 24 15 8 22 -4 45 -24 45
-10 0 -20 -7 -24 -15z m40 -6 c10 -17 -13 -36 -27 -22 -12 12 -4 33 11 33 5 0
12 -5 16 -11z"/>
<path d="M534 1156 c-13 -33 23 -65 41 -36 3 5 0 7 -8 4 -8 -3 -18 -1 -22 5
-3 7 3 11 15 11 13 0 20 5 18 13 -7 18 -37 21 -44 3z m33 -2 c-3 -3 -12 -4
-19 -1 -8 3 -5 6 6 6 11 1 17 -2 13 -5z"/>
<path d="M1024 1156 c-8 -20 3 -36 24 -35 14 0 13 2 -3 9 -18 8 -18 9 -2 9 10
1 17 6 15 13 -7 19 -27 21 -34 4z"/>
<path d="M1075 1160 c-3 -6 1 -13 10 -16 13 -6 14 -8 3 -15 -10 -7 -9 -9 5 -9
9 0 17 7 17 15 0 8 -8 15 -17 16 -15 0 -15 2 2 9 16 7 17 9 3 9 -9 1 -20 -4
-23 -9z"/>
<path d="M1123 1154 c-8 -22 13 -42 30 -25 10 10 9 11 -5 6 -13 -5 -18 -2 -18
10 0 11 5 15 16 11 8 -3 12 -2 9 4 -9 15 -25 12 -32 -6z"/>
<path d="M1171 1143 c1 -22 2 -23 6 -8 3 11 10 23 17 27 7 5 5 8 -6 8 -13 0
-18 -7 -17 -27z"/>
<path d="M1212 1145 c0 -16 2 -22 5 -12 2 9 2 23 0 30 -3 6 -5 -1 -5 -18z"/>
<path d="M1231 1133 c0 -21 3 -32 6 -25 2 6 11 12 18 12 7 0 15 6 17 13 8 20
-2 37 -23 37 -15 0 -19 -7 -18 -37z m30 14 c-1 -12 -15 -9 -19 4 -3 6 1 10 8
8 6 -3 11 -8 11 -12z"/>
<path d="M1322 1145 c0 -16 2 -22 5 -12 2 9 2 23 0 30 -3 6 -5 -1 -5 -18z"/>
<path d="M1344 1155 c-7 -18 3 -35 21 -35 15 0 24 19 18 38 -6 17 -32 15 -39
-3z m28 -10 c0 -5 -5 -11 -11 -13 -6 -2 -11 4 -11 13 0 9 5 15 11 13 6 -2 11
-8 11 -13z"/>
<path d="M1401 1143 c1 -23 2 -24 6 -5 2 12 8 22 13 22 5 0 11 -10 13 -22 5
-20 5 -20 4 2 -1 15 -9 26 -19 28 -14 3 -18 -3 -17 -25z"/>
<path d="M350 885 c-9 -11 -10 -16 -2 -11 8 4 12 1 12 -9 0 -11 -5 -15 -15
-11 -8 3 -15 1 -15 -4 0 -6 6 -10 14 -10 8 0 16 -5 18 -12 8 -22 15 16 9 46
-6 28 -7 28 -21 11z"/>
<path d="M394 887 c-9 -25 0 -62 16 -62 10 0 15 10 15 34 0 36 -21 54 -31 28z
m26 -27 c0 -16 -4 -30 -10 -30 -5 0 -10 14 -10 30 0 17 5 30 10 30 6 0 10 -13
10 -30z"/>
<path d="M454 887 c-9 -25 0 -62 16 -62 10 0 15 10 15 34 0 36 -21 54 -31 28z
m26 -27 c0 -16 -4 -30 -10 -30 -5 0 -10 14 -10 30 0 17 5 30 10 30 6 0 10 -13
10 -30z"/>
<path d="M963 735 c0 -27 2 -38 4 -22 2 15 2 37 0 50 -2 12 -4 0 -4 -28z"/>
<path d="M1193 735 c0 -27 2 -38 4 -22 2 15 2 37 0 50 -2 12 -4 0 -4 -28z"/>
<path d="M1283 735 c0 -27 2 -38 4 -22 2 15 2 37 0 50 -2 12 -4 0 -4 -28z"/>
<path d="M1343 735 c0 -27 2 -38 4 -22 2 15 2 37 0 50 -2 12 -4 0 -4 -28z"/>
<path d="M1380 735 c0 -45 1 -46 28 -43 24 3 27 7 27 43 0 36 -3 40 -27 43
-27 3 -28 2 -28 -43z m45 0 c0 -20 -6 -31 -17 -33 -15 -3 -18 4 -18 33 0 29 3
36 18 33 11 -2 17 -13 17 -33z"/>
<path d="M1898 762 c-16 -17 -16 -18 3 -18 12 0 19 7 19 18 0 22 0 21 -22 0z"/>
<path d="M991 720 c1 -34 1 -34 8 -6 9 42 29 44 34 4 l4 -33 1 37 c2 35 0 38
-23 36 -22 -2 -25 -7 -24 -38z"/>
<path d="M1093 745 c-3 -9 -3 -18 -1 -21 3 -3 8 4 11 16 6 23 -1 27 -10 5z"/>
<path d="M1126 751 c-3 -5 3 -7 14 -4 11 3 20 1 20 -5 0 -5 -9 -12 -20 -15
-30 -8 -26 -37 5 -35 22 2 26 7 23 33 -3 30 -30 47 -42 26z m29 -41 c-3 -5
-10 -10 -16 -10 -5 0 -9 5 -9 10 0 6 7 10 16 10 8 0 12 -4 9 -10z"/>
<path d="M1213 725 c0 -22 2 -30 4 -17 2 12 2 30 0 40 -3 9 -5 -1 -4 -23z"/>
<path d="M1244 746 c-8 -22 -1 -49 14 -52 7 -1 8 0 2 3 -14 7 -13 50 3 56 9 4
9 6 -1 6 -7 1 -15 -5 -18 -13z"/>
<path d="M1495 750 c-9 -14 1 -27 25 -33 11 -3 18 -1 14 4 -3 5 -12 9 -20 9
-20 0 -18 18 4 23 15 4 15 5 0 6 -9 0 -20 -3 -23 -9z"/>
<path d="M1553 731 c1 -21 8 -36 17 -39 12 -4 13 -2 3 9 -6 8 -13 25 -16 39
-4 17 -5 15 -4 -9z"/>
<path d="M1593 725 c0 -22 2 -30 4 -17 2 12 2 30 0 40 -3 9 -5 -1 -4 -23z"/>
<path d="M1621 711 l2 -46 6 39 c7 45 31 62 31 23 0 -14 -5 -28 -10 -30 -6 -3
-5 -4 2 -3 7 2 13 16 13 32 0 23 -5 29 -22 30 -21 1 -23 -3 -22 -45z"/>
<path d="M1692 715 c-1 -27 2 -45 6 -39 4 6 15 13 25 17 21 8 20 59 -1 63 -7
1 -8 0 -2 -3 16 -7 12 -53 -4 -53 -9 0 -16 13 -19 33 -3 23 -4 18 -5 -18z"/>
<path d="M1783 725 c0 -22 2 -30 4 -17 2 12 2 30 0 40 -3 9 -5 -1 -4 -23z"/>
<path d="M1817 754 c-4 -4 -7 -18 -7 -31 0 -26 26 -41 42 -25 8 8 5 9 -11 5
-12 -3 -21 -1 -21 6 0 6 9 11 21 11 14 0 19 5 17 17 -3 19 -29 29 -41 17z m28
-14 c3 -5 -1 -10 -9 -10 -9 0 -16 5 -16 10 0 6 4 10 9 10 6 0 13 -4 16 -10z"/>
<path d="M1065 725 c7 -33 12 -41 20 -33 3 3 -2 18 -11 34 l-16 29 7 -30z"/>
<path d="M1498 698 c5 -5 16 -8 23 -6 8 3 3 7 -10 11 -17 4 -21 3 -13 -5z"/>
<path d="M1890 696 c7 -7 13 -7 20 0 6 6 3 10 -10 10 -13 0 -16 -4 -10 -10z"/>
<path d="M350 425 c-9 -11 -10 -16 -2 -11 8 4 12 1 12 -9 0 -11 -5 -15 -15
-11 -8 3 -15 1 -15 -4 0 -6 6 -10 14 -10 8 0 16 -5 18 -12 8 -22 15 16 9 46
-6 28 -7 28 -21 11z"/>
<path d="M394 427 c-9 -25 0 -62 16 -62 10 0 15 10 15 34 0 36 -21 54 -31 28z
m26 -27 c0 -16 -4 -30 -10 -30 -5 0 -10 14 -10 30 0 17 5 30 10 30 6 0 10 -13
10 -30z"/>
<path d="M470 425 c-9 -11 -10 -16 -2 -11 8 4 12 1 12 -9 0 -11 -5 -15 -15
-11 -8 3 -15 1 -15 -4 0 -6 6 -10 14 -10 8 0 16 -5 18 -12 8 -22 15 16 9 46
-6 28 -7 28 -21 11z"/>
<path d="M961 273 c1 -27 4 -38 6 -25 3 13 12 22 23 22 10 0 21 4 24 9 3 4 -6
6 -19 3 -19 -3 -25 0 -25 13 0 13 6 16 25 13 14 -3 25 -1 25 3 0 5 -13 9 -30
9 -29 0 -30 -1 -29 -47z"/>
<path d="M1108 310 c-5 -17 3 -80 11 -80 7 0 6 79 -2 86 -3 3 -7 0 -9 -6z"/>
<path d="M1308 310 c-5 -17 3 -80 11 -80 7 0 6 79 -2 86 -3 3 -7 0 -9 -6z"/>
<path d="M1650 306 c0 -8 -8 -13 -17 -12 -14 1 -18 -7 -18 -29 0 -24 4 -30 23
-31 20 -1 22 3 22 42 0 24 -2 44 -5 44 -3 0 -5 -6 -5 -14z m-5 -41 c0 -10 -6
-20 -12 -22 -8 -3 -13 5 -13 22 0 17 5 25 13 23 6 -3 12 -13 12 -23z"/>
<path d="M1047 294 c-4 -4 -7 -18 -7 -31 0 -26 26 -41 42 -25 8 8 5 9 -11 5
-12 -3 -21 -1 -21 6 0 6 9 11 21 11 14 0 19 5 17 17 -3 19 -29 29 -41 17z m33
-14 c0 -5 -7 -10 -15 -10 -8 0 -15 5 -15 10 0 6 7 10 15 10 8 0 15 -4 15 -10z"/>
<path d="M1171 260 c1 -34 1 -34 8 -6 9 42 29 44 34 4 l4 -33 1 37 c2 35 0 38
-23 36 -22 -2 -25 -7 -24 -38z"/>
<path d="M1244 286 c-10 -26 0 -51 21 -51 16 0 20 7 20 30 0 33 -30 49 -41 21z
m36 -21 c0 -16 -6 -25 -15 -25 -9 0 -15 9 -15 25 0 16 6 25 15 25 9 0 15 -9
15 -25z"/>
<path d="M1378 265 c2 -19 5 -35 7 -35 2 0 5 16 7 35 2 21 0 35 -7 35 -7 0 -9
-14 -7 -35z"/>
<path d="M1414 286 c-10 -26 0 -51 21 -51 16 0 20 7 20 30 0 33 -30 49 -41 21z
m31 -21 c0 -10 -6 -20 -12 -22 -8 -3 -13 5 -13 22 0 17 5 25 13 23 6 -3 12
-13 12 -23z"/>
<path d="M1473 271 c1 -21 8 -36 17 -39 12 -4 13 -2 3 9 -6 8 -13 25 -16 39
-4 17 -5 15 -4 -9z"/>
<path d="M1513 265 c0 -22 2 -30 4 -17 2 12 2 30 0 40 -3 9 -5 -1 -4 -23z"/>
<path d="M1543 265 c0 -22 2 -30 4 -17 2 12 2 30 0 40 -3 9 -5 -1 -4 -23z"/>
<path d="M1567 293 c6 -4 13 -22 16 -38 4 -27 5 -27 3 4 0 21 -7 36 -16 38
-10 3 -11 2 -3 -4z"/>
</g>
</svg>
